<ttFont>
          <CharString index="0">
            rmoveto
            9.020004272460938 47 0 55 72.99000549316406 vvcurveto
            -7 260.02000427246094 -161.02000427246094 -79 callgsubr
            -240.99000549316406 -85 callgsubr
            rrcurveto
            -328 -3.9900054931640625 -182.99000549316406 -244.02000427246094 -343 vvcurveto
            -365 -12 callgsubr
            -215.97999572753906 320 141 169 42.97999572753906 62 75 vhcurveto
            -50 callsubr
            183 callgsubr
            -60 -147 -36.99000549316406 -103 hhcurveto
            -211 -154.99000549316406 110 292.97999572753906 -10.020004272460938 hvcurveto
            40 747 vlineto
            -409.99000549316406 484 rmoveto
            207 -23 callgsubr
            -163 -209 -12 hvcurveto
            -593 hlineto
            263 30 132.02000427246094 109 169 hhcurveto
            endchar
          </CharString>
          <CharString index="1">
            rmoveto
            -322.00999450683594 -4 139 -284.9700012207031 362 hhcurveto
            294.02000427246094 216.99000549316406 206.99000549316406 362.99000549316406 5 hvcurveto
            323.00999450683594 4.0200042724609375 -143.02000427246094 279 -356 hhcurveto
            -290 -222.99000549316406 -201 -363.99000549316406 -5.0200042724609375 hvcurveto
            844 -30 38 callsubr
            -125.00999450683594 -176 -217 3 -232 2.9900054931640625 -100 223 1 259.99000549316406 1 285 129 164 215 -85 callgsubr
            227 -2 103 -210 -1 -262 rrcurveto
            endchar
          </CharString>
          <CharString index="2">
            rmoveto
            -77 callsubr
            -126.02000427246094 171 callsubr
            66 150 4 callgsubr
            146 hhcurveto
            243 155.02000427246094 112.97999572753906 199.99000549316406 197.02000427246094 -197 89.99000549316406 -150.02000427246094 59 hvcurveto
            -147.99000549316406 57 -103 57 -66 callsubr
            120.00999450683594 rrcurveto
            89.99000549316406 1 85 65 163 hhcurveto
            112 108.00999450683594 -50 callsubr
            -30 39 hvcurveto
            28 127 -40 23 -120 37 -133.02000427246094 -1 rlinecurve
            -214 -1 -180 -91 -4 -196.02000427246094 -2 -186 150 -98 175 -71 rrcurveto
            136 -54.99000549316406 136 -53 -120 vvcurveto
            -118 -104.02000427246094 -59 -145.99000549316406 vhcurveto
            -138.02000427246094 2 -146.97999572753906 52 -43 30 rrcurveto
            return
          </CharString>
          <CharString index="3">
            rmoveto
            -37 55 -12 callgsubr
            -52.97999572753906 200 hhcurveto
            293.99000549316406 206 132.97000122070312 268 57 callsubr
            hvcurveto
            -216 104.02000427246094 -121 70.99000549316406 171 vvcurveto
            152 -1 167 69 162 hhcurveto
            157 95.00999450683594 -34 -48 74 hvcurveto
            35 133 rlineto
            36 -54 -114 46 -192 hhcurveto
            -231 -260.00999450683594 2 callgsubr
            -280 -225 200 -140.99000549316406 198 -90.00999450683594 hvcurveto
            213 245 callgsubr
            -133.97999572753906 -30 callsubr
            rlineto
            endchar
          </CharString>
          <CharString index="4">
            -78 callgsubr
            79.02000427246094 -35 callsubr
            -21 -54 12.990005493164062 -61 hhcurveto
            -181.99000549316406 -210 -111.99000549316406 -338 hvcurveto
            -92 vlineto
            -196.02000427246094 0 callsubr
            196.02000427246094 vlineto
            return
          </CharString>
          <CharString index="5">
            -611 -645 rmoveto
            -178 -93.99000549316406 118 156 212.99000549316406 3 callsubr
            62.02000427246094 148 0.9900054931640625 hvcurveto
            167 1 103 -88.99000549316406 -182 vvcurveto
            -203 -116 -77 -165.99000549316406 vhcurveto
            -45 -491.99000549316406 rmoveto
            78 callsubr
            return
          </CharString>
          <CharString index="6">
            -71 callsubr
            -62 callgsubr
            135 -11.020004272460938 86.02000427246094 43 callsubr
            474.99000549316406 -7 269 328.99000549316406 499 vvcurveto
            460 0.9900054931640625 -238 271.02000427246094 -483 return
          </CharString>
          <CharString index="7">
            -1013.9900054931641 167 1013.9900054931641 303 126.00999450683594 -303 128 vlineto
            185 82 94.99000549316406 return
          </CharString>
          <CharString index="8">
            -15.990005493164062 return
          </CharString>
          <CharString index="9">
            -64 -330 -85.02000427246094 331 -301 1006 rlineto
            -124.99000549316406 hlineto
            -298 -1006 -74.02000427246094 -335.00999450683594 -69 335.00999450683594 -249 1006 rlineto
            -174 hlineto
            412 -1537.979995727539 243 callgsubr
            329 1095.979995727539 37 182 36.99000549316406 -182 325.02000427246094 -1095.979995727539 rlineto
            -24 callgsubr
            hlineto
            392.00999450683594 1537.979995727539 rlineto
            return
          </CharString>
          <CharString index="10">
            -100 callsubr
            80 callgsubr
            79.00999450683594 128 callsubr
            -61 hhcurveto
            -181.99000549316406 51 callsubr
            return
          </CharString>
          <CharString index="11">
            rmoveto
            -88 -1 -124.99000549316406 7.9900054931640625 -77 11.020004272460938 rrcurveto
            1270.990005493164 vlineto
            7 69 84 7 -38 callsubr
            hhcurveto
            388.02000427246094 198 -186 -447.02000427246094 -2 hvcurveto
            -2 -459.97999572753906 -220 -206 -321 -4 rrcurveto
            return
          </CharString>
          <CharString index="12">
            rmoveto
            -428.00999450683594 -1 172.02000427246094 -231.97000122070312 402 hhcurveto
            373.99000549316406 186 221.97999572753906 439.00999450683594 hvcurveto
            return
          </CharString>
          <CharString index="13">
            rmoveto
            -237 -782 -66 -224 -76 224 -274 782 rlineto
            107 callgsubr
            hlineto
            427.99000549316406 -1140 rlineto
            49 hlineto
            -294.99000549316406 -75 -124 -73.02000427246094 -115 hhcurveto
            -29 -48 5 7 -22 hvcurveto
            hintmask 01111100
            126 callgsubr
            vlineto
            hintmask 10111100
            63 callsubr
            12 69 -6 30 hhcurveto
            141 callsubr
            43 6 7 29 hvcurveto
            150 42 125 callsubr
            150 89.99000549316406 273 392.00999450683594 1168.990005493164 rcurveline
            -180 hlineto
            endchar
          </CharString>
          <CharString index="14">
            rmoveto
            304 2.9900054931640625 164 174 217.99000549316406 hhcurveto
            122 75.02000427246094 -24 -31.009994506835938 36.99000549316406 hvcurveto
            -750 vlineto
            -47 -56 -107 -13 callsubr
            -132 hhcurveto
            -204 -124.00999450683594 144 297 4.0200042724609375 hvcurveto
            endchar
          </CharString>
          <CharString index="15">
            877 -168 -837 vlineto
            -437 -146 -131 -240.99000549316406 -257 -153 125.00999450683594 442 vhcurveto
            return
          </CharString>
          <CharString index="16">
            173 -99 callsubr
            132.97999572753906 1364.0400085449219 -57 callgsubr
            return
          </CharString>
          <CharString index="17">
            -47 callgsubr
            249 105 callsubr
            -28 callgsubr
            58 callgsubr
            -197.00001525878906 251 callgsubr
            hintmask 11110000
            -28 callgsubr
            1501.979995727539 -99 callgsubr
            hintmask 11101000
            89 callsubr
            -362.99000549316406 -89 callsubr
          </CharString>
          <CharString index="18">
            rmoveto
            -1139 166.02000427246094 1139 -166.02000427246094 vlineto
            endchar
          </CharString>
          <CharString index="19">
            -221 -788.0099945068359 -63 callgsubr
            -179 -42 184 -223 783.0099945068359 rlineto
            -165 hlineto
            -221 -783.0099945068359 -40 -179 -63 callgsubr
            179 -229 783.0099945068359 rlineto
            -167 hlineto
            359 -1158 rlineto
            158 hlineto
            return
          </CharString>
          <CharString index="20">
            43.99000549316406 return
          </CharString>
          <CharString index="21">
            -68.02000427246094 88 57.02000427246094 215 204.99000549316406 return
          </CharString>
          <CharString index="22">
            -77 -516.9900054931641 115 401.99000549316406 65 callsubr
            247.989990234375 112 511 134 -95 114.00999450683594 return
          </CharString>
          <CharString index="23">
            rmoveto
            -179 hlineto
            -359.00999450683594 -701.0099945068359 -44 90 callsubr
            -51 -22 callgsubr
            -374 701.0099945068359 rlineto
            -181 hlineto
            517 -937 rlineto
            -584.9900054931641 172 587 vlineto
            499 935 rlineto
            endchar
          </CharString>
          <CharString index="24">
            12 -310.99000549316406 -23 callsubr
            246.99000549316406 -701.0099945068359 1060 rlineto
            -157 -75 callsubr
            156 969.9900054931641 hlineto
            return
          </CharString>
          <CharString index="25">
            -71.99000549316406 return
          </CharString>
          <CharString index="26">
            -53.99000549316406 -74.02000427246094 return
          </CharString>
          <CharString index="27">
            58 -99 callsubr
            -61 callsubr
            -128 134 978.0299987792969 198 callgsubr
            221 callgsubr
            166 551 251 callgsubr
            hintmask 01111000
            1229.990005493164 162.97999572753906 rmoveto
            -34.970001220703125 -41 -33 -7 -16 hhcurveto
            -27.009994506835938 -13.990005493164062 18.990005493164062 88 hvcurveto
            912.0200042724609 -166 vlineto
            hintmask 10111000
            -905.0099945068359 vlineto
            -45 callsubr
            -48 150 callgsubr
            -82 -116 hhcurveto
            -173.02000427246094 1 127 callgsubr
            82.99000549316406 185.02000427246094 vvcurveto
            756 -166 -1510.990005493164 156.02000427246094 vlineto
            -24 483.97999572753906 rlineto
            141 callgsubr
            64 -71 callsubr
            203 callsubr
            117 hhcurveto
            162 111 -71 callsubr
            52 51 hvcurveto
            -110 -4 43 -41 69 hhcurveto
            91 83 71 29 17 hvcurveto
            hintmask 01111000
            -24 75.97999572753906 rlineto
            endchar
          </CharString>
          <CharString index="28">
            144 -49 71 callgsubr
            38 -167.02000427246094 hhcurveto
            -182.99000549316406 -202 79 callgsubr
            -41 hvcurveto
            41.99000549316406 -112 rlineto
            43 65 163 56 115 hhcurveto
            152 100 -27 -202 hvcurveto
            -44 callsubr
            vlineto
            -130.99000549316406 -179.02000427246094 -14.990005493164062 -52 -133 hvcurveto
            174 callgsubr
            -59 -92 -105 -150 vvcurveto
            -198 149 -118.97999572753906 201.99000549316406 186 147 86.97000122070312 118 -4 callgsubr
            vhcurveto
            -135 81.99000549316406 139.02000427246094 -69.97999572753906 186.99000549316406 hhcurveto
            142 170 42.97999572753906 62 76 hvcurveto
            120 callgsubr
            183 callgsubr
            91 callgsubr
            -151 -36 -102.00999450683594 hhcurveto
            -211 -152.99000549316406 104.02000427246094 297.97999572753906 -10.009994506835938 hvcurveto
            return
          </CharString>
          <CharString index="29">
            92 0 -74 callsubr
            return
          </CharString>
          <CharString index="30">
            -26.009994506835938 return
          </CharString>
          <CharString index="31">
            -52 -99 callsubr
            137.99000549316406 977.0299987792969 -103 callgsubr
            return
          </CharString>
          <CharString index="32">
            -1521.990005493164 return
          </CharString>
          <CharString index="33">
            43 374.99000549316406 127 815 -28 callgsubr
            -40.96002197265625 -103 callgsubr
            return
          </CharString>
          <CharString index="34">
            205.99000549316406 return
          </CharString>
          <CharString index="35">
            43 -66 callsubr
            43 -40.99000549316406 43 132.97999572753906 120.00999450683594 hstemhm
            return
          </CharString>
          <CharString index="36">
            101.99000549316406 return
          </CharString>
          <CharString index="37">
            -18 28 -19 35 -21 39 rrcurveto
            -861 681 rmoveto
            612 vlineto
            11 62 111 5 91.02000427246094 hhcurveto
            260 116 -86 -217 hvcurveto
            -1 -222 -141 11 callgsubr
            -214 -2 rrcurveto
            -58 -176.99000549316406 1 5 -49 hvcurveto
            return
          </CharString>
          <CharString index="38">
            -173 -71 callgsubr
            442.97999572753906 112 372 119 return
          </CharString>
          <CharString index="39">
            -111 -71 callsubr
            196 callsubr
            return
          </CharString>
          <CharString index="40">
            -80 -58 -55 -88 -1 -77 -1 -65 15.009994506835938 -65.99000549316406 71.99000549316406 -40 rrcurveto
            return
          </CharString>
          <CharString index="41">
            1.9900054931640625 return
          </CharString>
          <CharString index="42">
            51 78 65 -35 47.99000549316406 return
          </CharString>
          <CharString index="43">
            43 1055.0299987792969 -103 callgsubr
            return
          </CharString>
          <CharString index="44">
            1521.990005493164 return
          </CharString>
          <CharString index="45">
            234.99000549316406 -234.98001098632812 43 hstemhm
            return
          </CharString>
          <CharString index="46">
            130.99000549316406 return
          </CharString>
          <CharString index="47">
            -194 -507 138.99000549316406 -124.97000122070312 43 449.97999572753906 43 1056.0299987792969 -103 callgsubr
            return
          </CharString>
          <CharString index="48">
            141 -99 callsubr
            129.99000549316406 509 127 654.9799957275391 -53 callsubr
            return
          </CharString>
          <CharString index="49">
            4 callsubr
            240 callsubr
            vlineto
            89.99000549316406 69.02000427246094 139 1 callgsubr
            114.02000427246094 3 193.99000549316406 6 60 -88 -1 -246 rrcurveto
            -688.9900054931641 -82 callgsubr
            676.9900054931641 vlineto
            1 356 -103 128 -250 -4 rrcurveto
            endchar
          </CharString>
          <CharString index="50">
            97 134 vvcurveto
            108.00999450683594 -46 77.99000549316406 return
          </CharString>
          <CharString index="51">
            -29 callsubr
            248.00001525878906 -17 callgsubr
            -82.00001525878906 134 hstemhm
            return
          </CharString>
          <CharString index="52">
            232 837 33 146.99000549316406 29 -146.99000549316406 237.02000427246094 -837 rlineto
            78 callsubr
            355 1158 rlineto
            return
          </CharString>
          <CharString index="53">
            110.97999572753906 171 1008.010009765625 -79 callgsubr
            return
          </CharString>
          <CharString index="54">
            132.99000549316406 return
          </CharString>
          <CharString index="55">
            -688 -81 callgsubr
            169 -62 callsubr
            193.99000549316406 227 -200 216 callsubr
            hintmask 11011000
            193.99000549316406 -54 callgsubr
            hintmask 11101000
            62 -33 97 callgsubr
            -72 vhcurveto
            hintmask 11011000
            -8 callgsubr
            hvcurveto
            hintmask 11010100
            27.009994506835938 -279 -86 callgsubr
            endchar
          </CharString>
          <CharString index="56">
            vstem
            1210 110.97999572753906 rmoveto
            13 callgsubr
            210 -279 396 -101 159 541 646 rcurveline
            -200.99000549316406 hlineto
            -675 -821 rlineto
            821 -169 -75 callsubr
            169 488 vlineto
            230 60 callgsubr
            115 -179 197 -279 -71 callsubr
            -182 rlinecurve
            35 -61.99000549316406 11 -77 callsubr
            16.020004272460938 -24.990005493164062 rrcurveto
            195.99000549316406 hlineto
            -6 9.990005493164062 -54 89.99000549316406 -6.9900054931640625 11 rrcurveto
            return
          </CharString>
          <CharString index="57">
            -31.990005493164062 return
          </CharString>
          <CharString index="58">
            rmoveto
            -539.0200042724609 -1530 rlineto
            150.02000427246094 hlineto
            541 1530 rlineto
            -152 hlineto
            961 -1303.020004272461 rmoveto
            -1 116.02000427246094 rlineto
            -192 297.97999572753906 hlineto
            10 callsubr
            -16 -6 -280 rlineto
            -67 callgsubr
            -396.99000549316406 vlineto
            56 99.99000549316406 384 629 -99 59 rlineto
            -52 hlineto
            -474.00999450683594 -832 41 58 callsubr
            rlineto
            541 hlineto
            -62 callgsubr
            -282.9700012207031 rlineto
            156 282.9700012207031 193 hlineto
            endchar
          </CharString>
          <CharString index="59">
            -46 callgsubr
            203 callgsubr
            -126.00999450683594 -32 callsubr
            -129.99000549316406 rlinecurve
            return
          </CharString>
          <CharString index="60">
            -86 callgsubr
            353 -1764.990005493164 rmoveto
            53 -89 164 callgsubr
            -87 callsubr
            237 callgsubr
            rlinecurve
            41 callsubr
            -66 callsubr
            65 callgsubr
            -35.99000549316406 -44 callsubr
            vhcurveto
            -44 90 callgsubr
            -129.99000549316406 188 callgsubr
            -124 -34 rrcurveto
            endchar
          </CharString>
          <CharString index="61">
            -65 callsubr
            3 callgsubr
            return
          </CharString>
          <CharString index="62">
            -37.99000549316406 return
          </CharString>
          <CharString index="63">
            -119.00999450683594 return
          </CharString>
          <CharString index="64">
            137 callgsubr
            82.99000549316406 -57 callsubr
            108 callgsubr
            22.020004272460938 vhcurveto
            return
          </CharString>
          <CharString index="65">
            -14 callgsubr
            -68 callsubr
            return
          </CharString>
          <CharString index="66">
            rmoveto
            -75 callsubr
            801 133 -628.9900054931641 1389 -172 vlineto
            return
          </CharString>
          <CharString index="67">
            124.99000549316406 return
          </CharString>
          <CharString index="68">
            334 -18 43 -43 190.99000549316406 792.989990234375 174.00999450683594 -40.959991455078125 -103 callgsubr
            return
          </CharString>
          <CharString index="69">
            95.99000549316406 return
          </CharString>
          <CharString index="70">
            -87 callsubr
            -291 -22 callsubr
            return
          </CharString>
          <CharString index="71">
            -574 -521.0200042724609 rmoveto
            0.9900054931640625 285 130 164 217 -85 callgsubr
            rrcurveto
            33 30 -5.0200042724609375 -7.9900054931640625 26.990005493164062 hvcurveto
            -286.97999572753906 -856 -105 118 callgsubr
            -47 160 1 -28 callgsubr
            rlinecurve
            679 -28 rmoveto
            -1 -285 -125.99000549316406 -176 -218 3 rrcurveto
            -34 -31 6 9 -29 hvcurveto
            288.00999450683594 857 103 -81 49 -154 -1 -179 rlinecurve
            endchar
          </CharString>
          <CharString index="72">
            -87 callsubr
            -73 callgsubr
            return
          </CharString>
          <CharString index="73">
            -36 64 rlineto
            -995 -135 810 hlineto
            -85.00999450683594 -112 -808 -1209 rlineto
            return
          </CharString>
          <CharString index="74">
            -155 -87 callsubr
            50.02000427246094 -81 vhcurveto
            -41 -139 return
          </CharString>
          <CharString index="75">
            -118.99000549316406 return
          </CharString>
          <CharString index="76">
            -42 callsubr
            -45 -36 rlinecurve
            return
          </CharString>
          <CharString index="77">
            -79 -211 -144 -33 callsubr
            return
          </CharString>
          <CharString index="78">
            0 43 970.9799957275391 126.00999450683594 return
          </CharString>
          <CharString index="79">
            878 vlineto
            89.99000549316406 74 143 60 -71 callsubr
            4 rrcurveto
            187 177 callgsubr
            37 -100.99000549316406 -227 vvcurveto
            -697 167 707.9900054931641 vlineto
            71.99000549316406 -4 62 -8 53 vhcurveto
            118 callgsubr
            59 129 220 callgsubr
            66 callgsubr
            2 rrcurveto
            199.99000549316406 6 31 -116 -212 vvcurveto
            -694.9900054931641 166.02000427246094 703 vlineto
            return
          </CharString>
          <CharString index="80">
            rmoveto
            -1664 -82 callgsubr
            1664 -166.99000549316406 vlineto
            return
          </CharString>
          <CharString index="81">
            -82 callsubr
            -70 callgsubr
            return
          </CharString>
          <CharString index="82">
            54.99000549316406 return
          </CharString>
          <CharString index="83">
            9.009994506835938 return
          </CharString>
          <CharString index="84">
            -141.99000549316406 return
          </CharString>
          <CharString index="85">
            346.00999450683594 rlineto
            return
          </CharString>
          <CharString index="86">
            24 83 -57 callsubr
            return
          </CharString>
          <CharString index="87">
            -185 -195 79 callgsubr
            -39 return
          </CharString>
          <CharString index="88">
            rmoveto
            -996 vlineto
            hintmask 01011110
            -83 callsubr
            hintmask 10101110
            -83 callgsubr
            hlineto
            hintmask 10011110
            -155 hlineto
            endchar
          </CharString>
          <CharString index="89">
            123 116 callsubr
            -154 166 hhcurveto
            -50 callgsubr
            117 79.99000549316406 96.02000427246094 43 hvcurveto
            return
          </CharString>
          <CharString index="90">
            276 0 -53 callsubr
            hstem
            -25 callsubr
            1465.990005493164 vstem
            -25 callsubr
            164 callsubr
            rmoveto
            13 10 callgsubr
            rlineto
            1438 hlineto
            116 callsubr
            24.990005493164062 -749 1483 rlineto
            -29 hlineto
            -688 -1486.990005493164 rlineto
            1239 112 rmoveto
            -1023 hlineto
            493 1086 530 -1086 rlineto
            endchar
          </CharString>
          <CharString index="91">
            -263 173 callsubr
            67 callsubr
            -297 12 callsubr
            return
          </CharString>
          <CharString index="92">
            -53 callsubr
            1348.0399932861328 182 callgsubr
            172 return
          </CharString>
          <CharString index="93">
            hstemhm
            -53 callgsubr
            return
          </CharString>
          <CharString index="94">
            -66.99000549316406 return
          </CharString>
          <CharString index="95">
            97 callsubr
            vstem
            100.99000549316406 1306.990005493164 rmoveto
            -159 74 -144 118 callsubr
            -41 vhcurveto
            86 122 callsubr
            47 vlineto
            -65.99000549316406 28.020004272460938 -56 104 100 vvcurveto
            144 68 189 callsubr
            57.02000427246094 46 vhcurveto
            25 vlineto
            58 callsubr
            47 rlineto
            -82 -55 -128 -156 -219 vvcurveto
            return
          </CharString>
          <CharString index="96">
            -559.9900054931641 43 516.9900054931641 return
          </CharString>
          <CharString index="97">
            348 1408 rmoveto
            184 callgsubr
            74 62 -29 43 -70 -59 -59 -49 -70 76 callsubr
            119 callsubr
            hvcurveto
            450.99000549316406 hmoveto
            170 callgsubr
            -30 43 -69 -59 -58 102 callgsubr
            -25 callsubr
            hvcurveto
            return
          </CharString>
          <CharString index="98">
            -147 -99 callsubr
            134.97999572753906 1285.990005493164 -53 callsubr
            return
          </CharString>
          <CharString index="99">
            -99 callsubr
            133.97999572753906 return
          </CharString>
          <CharString index="100">
            386 -216 163 -234 vhcurveto
            280 -572 rmoveto
            -304 -4 -163 -174 -219 hhcurveto
            -122.99000549316406 -75.02000427246094 25.009994506835938 142 callsubr
            -36.99000549316406 hvcurveto
            746 vlineto
            48 -25 callsubr
            109.02000427246094 68 132 hhcurveto
            205 123 -144 -297 -3 hvcurveto
            endchar
          </CharString>
          <CharString index="101">
            -74 2 51 128 callgsubr
            58 hhcurveto
            1 callgsubr
            59 58.97999572753906 82 -85 callgsubr
            hvcurveto
            return
          </CharString>
          <CharString index="102">
            159.99000549316406 return
          </CharString>
          <CharString index="103">
            -87 callsubr
            -263 -263 227 callsubr
            return
          </CharString>
          <CharString index="104">
            vlineto
            -39 callgsubr
            return
          </CharString>
          <CharString index="105">
            27 -8 callsubr
            1282.000015258789 137.99000549316406 return
          </CharString>
          <CharString index="106">
            -99 callsubr
            -40 callsubr
            return
          </CharString>
          <CharString index="107">
            -34.02000427246094 rlineto
            -92 return
          </CharString>
          <CharString index="108">
            153.99000549316406 return
          </CharString>
          <CharString index="109">
            182.99000549316406 166 547.989990234375 167 return
          </CharString>
          <CharString index="110">
            135.99000549316406 return
          </CharString>
          <CharString index="111">
            167.02000427246094 return
          </CharString>
          <CharString index="112">
            -36 callgsubr
            149 hlineto
            return
          </CharString>
          <CharString index="113">
            166 -38.989990234375 -5 callsubr
            return
          </CharString>
          <CharString index="114">
            515.0099945068359 -679.0200042724609 rmoveto
            -75.02000427246094 -207 -5 -24 callsubr
            -65 hvcurveto
            554.9900054931641 -3 callsubr
            55 122 3.9900054931640625 -25 callsubr
            hhcurveto
            217 149 -69 -191 -183 -93.99000549316406 -116 -157 -12 hvcurveto
            return
          </CharString>
          <CharString index="115">
            -920 44 16 callsubr
          </CharString>
          <CharString index="116">
            -129.99000549316406 rlinecurve
            86 -86 callsubr
            return
          </CharString>
          <CharString index="117">
            -149.02000427246094 return
          </CharString>
          <CharString index="118">
            -67.00999450683594 return
          </CharString>
          <CharString index="119">
            -347.02000427246094 return
          </CharString>
          <CharString index="120">
            26 callgsubr
            -72.00999450683594 34 callsubr
            return
          </CharString>
          <CharString index="121">
            hhcurveto
            -194 -25 -31 callgsubr
            50 -67 callgsubr
            hvcurveto
            -117 hlineto
            return
          </CharString>
          <CharString index="122">
            -289 -71 callgsubr
            916.9900054931641 129 return
          </CharString>
          <CharString index="123">
            -96 callsubr
            endchar
          </CharString>
          <CharString index="124">
            876.9900054931641 vlineto
            57 57 113 75 132 hhcurveto
            83 36 -13 -10 18.990005493164062 hvcurveto
            return
          </CharString>
          <CharString index="125">
            110 47 -280 296 rlineto
            return
          </CharString>
          <CharString index="126">
            1797.979995727539 rmoveto
            -45 callgsubr
            57 65 -49 callgsubr
            230 callsubr
            -71 -62 -6 callgsubr
            return
          </CharString>
          <CharString index="127">
            85 callgsubr
            576.010009765625 -82 callgsubr
            return
          </CharString>
          <CharString index="128">
            -7 42 52 -85 callgsubr
            65 hhcurveto
            endchar
          </CharString>
          <CharString index="129">
            178 -71 callgsubr
            -112 112 1302.990005493164 30 callsubr
            return
          </CharString>
          <CharString index="130">
            64 57 47 callsubr
            vhcurveto
            return
          </CharString>
          <CharString index="131">
            -10.020004272460938 152 rlineto
            -23 callsubr
            -1139 -82 callgsubr
            hlineto
            return
          </CharString>
          <CharString index="132">
            -475 0 129 callgsubr
            return
          </CharString>
          <CharString index="133">
            213.99000549316406 -82 callgsubr
            return
          </CharString>
          <CharString index="134">
            -62 callgsubr
            133.02000427246094 rlineto
            -150.02000427246094 -1645.990005493164 166 367 hlineto
            -3 219 callsubr
            rlineto
            -19 52 78 -18.979995727539062 93 hhcurveto
            344 227 258.97999572753906 363.99000549316406 hvcurveto
            return
          </CharString>
          <CharString index="135">
            15.009994506835938 -154 -24 callgsubr
            138 callgsubr
            117 79.99000549316406 96.02000427246094 42.99000549316406 hvcurveto
            -13 callsubr
            -49 callgsubr
            rlineto
            -45 -38 -13 callsubr
            -60 -81 hhcurveto
            return
          </CharString>
          <CharString index="136">
            58 0 37 callgsubr
            return
          </CharString>
          <CharString index="137">
            108.99000549316406 -108.99000549316406 123 return
          </CharString>
          <CharString index="138">
            -3.9900054931640625 100 3 callsubr
            -10.020004272460938 110 hhcurveto
            446.02000427246094 1 callsubr
            -28 callgsubr
            289.02000427246094 198.99000549316406 -163 153 -186 -24 callsubr
            hvcurveto
            return
          </CharString>
          <CharString index="139">
            vstem
            221 callgsubr
            1494 rmoveto
            32 -92 101 22 -23 callgsubr
            45 71 18 rlinecurve
            -825 161 1005 vlineto
            -82 164 callsubr
            -47 -39 -181.99000549316406 71 callgsubr
            -121.02000427246094 -35 rlinecurve
            return
          </CharString>
          <CharString index="140">
            88 callsubr
            -117 133 -44 callsubr
            134 -100.99000549316406 -61 callsubr
            rlinecurve
            149 callsubr
            -103 80.02000427246094 248 callsubr
            94.99000549316406 127 callsubr
            rlinecurve
            return
          </CharString>
          <CharString index="141">
            -77 callgsubr
            98 callsubr
            -81 callsubr
            return
          </CharString>
          <CharString index="142">
            1873 rmoveto
            69 callsubr
            return
          </CharString>
          <CharString index="143">
            187.99000549316406 233 callsubr
            238 callsubr
            61 157 118 104.99000549316406 105 rlinecurve
            -110.99000549316406 -71 callsubr
            -40.02000427246094 235 callgsubr
            return
          </CharString>
          <CharString index="144">
            -103 -4 callsubr
            225 callgsubr
            return
          </CharString>
          <CharString index="145">
            rmoveto
            -62 callgsubr
            -285 return
          </CharString>
          <CharString index="146">
            220.99000549316406 -79 callgsubr
            return
          </CharString>
          <CharString index="147">
            123 callgsubr
            86 -68.02000427246094 88 57.02000427246094 215 204.99000549316406 68 101 rlinecurve
            return
          </CharString>
          <CharString index="148">
            42 callsubr
            985 -172 -968.0099945068359 vlineto
            -210 return
          </CharString>
          <CharString index="149">
            24 133 -5 162.02000427246094 -12 callgsubr
            vvcurveto
            return
          </CharString>
          <CharString index="150">
            -67 callgsubr
            rrcurveto
            return
          </CharString>
          <CharString index="151">
            18 callgsubr
            -114.02000427246094 76 callgsubr
            -195.99000549316406 -24 -12 callgsubr
            52 -1 vhcurveto
            -118 hlineto
            return
          </CharString>
          <CharString index="152">
            20 callgsubr
            -64 callsubr
            return
          </CharString>
          <CharString index="153">
            -50 -74.00999450683594 return
          </CharString>
          <CharString index="154">
            -70 callgsubr
            77 return
          </CharString>
          <CharString index="155">
            67 callgsubr
            hlineto
            406 -870.0099945068359 rmoveto
            -77 callgsubr
            125 callgsubr
            4.0099945068359375 7.9900054931640625 -62 hvcurveto
            return
          </CharString>
          <CharString index="156">
            -20 callgsubr
            58 64 59 -46 callsubr
            -61.99000549316406 -35 callgsubr
            return
          </CharString>
          <CharString index="157">
            1 839 rlineto
            -169 -879 hlineto
            endchar
          </CharString>
          <CharString index="158">
            -210 -111.99000549316406 -338 hvcurveto
            -92 vlineto
            -196 0 callsubr
            196 vlineto
            return
          </CharString>
          <CharString index="159">
            82 -5 36 hhcurveto
            227 112 158 371.99000549316406 hvcurveto
            1116 -166 -1180 vlineto
            return
          </CharString>
          <CharString index="160">
            68 callgsubr
            vhcurveto
            return
          </CharString>
          <CharString index="161">
            156 callgsubr
            -262.97999572753906 -263 return
          </CharString>
          <CharString index="162">
            65 callsubr
            154.99000549316406 return
          </CharString>
          <CharString index="163">
            -70 rlineto
            -38 vlineto
            -60 callgsubr
            -10 return
          </CharString>
          <CharString index="164">
            241 -226 115 -203 97 return
          </CharString>
          <CharString index="165">
            -72.00999450683594 return
          </CharString>
          <CharString index="166">
            49.99000549316406 return
          </CharString>
          <CharString index="167">
            -10 34 209 callgsubr
            203 callsubr
            158 callsubr
            83 97 134 vvcurveto
            108.00999450683594 return
          </CharString>
          <CharString index="168">
            1711.979995727539 rmoveto
            115 callgsubr
            return
          </CharString>
          <CharString index="169">
            192.97999572753906 167 return
          </CharString>
          <CharString index="170">
            -8.009994506835938 return
          </CharString>
          <CharString index="171">
            72.00999450683594 return
          </CharString>
          <CharString index="172">
            131.99000549316406 return
          </CharString>
          <CharString index="173">
            179 -87 callsubr
            65 176 145 vvcurveto
            223.99000549316406 -164 132.02000427246094 -333.99000549316406 vhcurveto
            -139 -74.02000427246094 -13 -127 hhcurveto
            return
          </CharString>
          <CharString index="174">
            -37 callsubr
            -149 hlineto
            return
          </CharString>
          <CharString index="175">
            1966.979995727539 rmoveto
            -173 -12 125.99000549316406 -152 return
          </CharString>
          <CharString index="176">
            -68 callsubr
            -45 -36 rlinecurve
            return
          </CharString>
          <CharString index="177">
            156 callsubr
            68 -12 49 hhcurveto
            116 103 63 169 10 hvcurveto
            return
          </CharString>
          <CharString index="178">
            107.99000549316406 return
          </CharString>
          <CharString index="179">
            rmoveto
            -75 callsubr
            169 709.9799957275391 792 -709.9799957275391 169 -63 callsubr
            -169 -682 -792 682 -169 vlineto
            endchar
          </CharString>
          <CharString index="180">
            1873 rmoveto
            -68 callsubr
            185 callsubr
            -36 rlinecurve
            72 148 callgsubr
            return
          </CharString>
          <CharString index="181">
            rmoveto
            -75 callsubr
            169 698.9799957275391 509.00999450683594 131 -509.00999450683594 560.9900054931641 682 131 -851 vlineto
            endchar
          </CharString>
          <CharString index="182">
            122.00999450683594 -54.959991455078125 -103 callgsubr
            return
          </CharString>
          <CharString index="183">
            119 callgsubr
            -87 callsubr
            -45 callsubr
            return
          </CharString>
          <CharString index="184">
            -45 callgsubr
            58 return
          </CharString>
          <CharString index="185">
            1 callsubr
            hlineto
            return
          </CharString>
          <CharString index="186">
            -45 -262 -234 return
          </CharString>
          <CharString index="187">
            97.00999450683594 return
          </CharString>
          <CharString index="188">
            42 136 170 -134 285 hhcurveto
            293.99000549316406 117 140 200.99000549316406 66 callgsubr
            -66 99.99000549316406 -62 37 hvcurveto
            return
          </CharString>
          <CharString index="189">
            -1 146 247 callsubr
            hlineto
            return
          </CharString>
          <CharString index="190">
            117 callgsubr
            161.99000549316406 return
          </CharString>
          <CharString index="191">
            594 845.9900054931641 rlineto
            return
          </CharString>
          <CharString index="192">
            131 callgsubr
            -21.009994506835938 -63 vhcurveto
            7 -23 rlineto
            return
          </CharString>
          <CharString index="193">
            -146 -7.9900054931640625 -66.00999450683594 -60 -72 vvcurveto
            -39 49 -24.979995727539062 36.99000549316406 65 65 38.99000549316406 39 34 vhcurveto
            return
          </CharString>
          <CharString index="194">
            55 callsubr
            440.00999450683594 107 callsubr
            return
          </CharString>
          <CharString index="195">
            68.02000427246094 return
          </CharString>
          <CharString index="196">
            32.99000549316406 return
          </CharString>
          <CharString index="197">
            -113.99000549316406 return
          </CharString>
          <CharString index="198">
            -45.02000427246094 return
          </CharString>
          <CharString index="199">
            734 vlineto
            71 10.020004272460938 92 3.9900054931640625 149 callgsubr
            -66 callsubr
            rrcurveto
            273 6 135 -110 -266 vvcurveto
            return
          </CharString>
          <CharString index="200">
            hhcurveto
            118 callsubr
            94 142 callgsubr
            91 46 hvcurveto
            11 callsubr
            56 rlineto
            91 callsubr
            -45 callsubr
            -60 -59 -94 hhcurveto
            return
          </CharString>
          <CharString index="201">
            -39 callgsubr
            -18.990005493164062 -37 5 -52 hhcurveto
            return
          </CharString>
          <CharString index="202">
            -12 -70 callgsubr
            hhcurveto
            116 173 callsubr
            63 169 10 hvcurveto
            return
          </CharString>
          <CharString index="203">
            -55.99000549316406 return
          </CharString>
          <CharString index="204">
            156.99000549316406 return
          </CharString>
          <CharString index="205">
            -62.02000427246094 return
          </CharString>
          <CharString index="206">
            339 -961.9900054931641 rlineto
            93 hlineto
            322.99000549316406 961.9900054931641 124 449.99000549316406 44 -449.99000549316406 rlineto
            return
          </CharString>
          <CharString index="207">
            -162 -1522.990005493164 164 1 138 callsubr
            947 38 449.99000549316406 3 callsubr
            -449.99000549316406 rlineto
            return
          </CharString>
          <CharString index="208">
            hstem
            69 callgsubr
            vstem
            return
          </CharString>
          <CharString index="209">
            246 callgsubr
            129 -181 221 hhcurveto
            return
          </CharString>
          <CharString index="210">
            -99 -91 -85.00999450683594 -41 hvcurveto
            return
          </CharString>
          <CharString index="211">
            hstem
            -53 callgsubr
            return
          </CharString>
          <CharString index="212">
            -17 callgsubr
            hstemhm
            return
          </CharString>
          <CharString index="213">
            61.99000549316406 return
          </CharString>
          <CharString index="214">
            155.99000549316406 return
          </CharString>
          <CharString index="215">
            183.99000549316406 return
          </CharString>
          <CharString index="216">
            139 -32 callsubr
            56 vhcurveto
            -105 -99 rlineto
            -48 vlineto
            58 -21 48 -103.99000549316406 -82 vvcurveto
            -156 -75 173 callgsubr
            return
          </CharString>
          <CharString index="217">
            534.0200042724609 -391 -534.0200042724609 -388.02000427246094 44 -121 653 436 rlineto
            141 vlineto
            -653 448 return
          </CharString>
          <CharString index="218">
            vstem
            273.97999572753906 1684.990005493164 rmoveto
            25 -719.0099945068359 rlineto
            134 hlineto
            24 719.0099945068359 rlineto
            -183 hlineto
            return
          </CharString>
          <CharString index="219">
            2 -70 106 callsubr
            1 125 callsubr
            rrcurveto
            121 1 97 35 93 hhcurveto
            112 -1 116 callgsubr
            -53 -105 vvcurveto
            return
          </CharString>
          <CharString index="220">
            201 callsubr
            273.97999572753906 263 return
          </CharString>
          <CharString index="221">
            62 152 callsubr
            183 callsubr
            return
          </CharString>
          <CharString index="222">
            46 callsubr
            vhcurveto
            return
          </CharString>
          <CharString index="223">
            14.990005493164062 return
          </CharString>
          <CharString index="224">
            122.97999572753906 return
          </CharString>
          <CharString index="225">
            119.00999450683594 return
          </CharString>
          <CharString index="226">
            56.02000427246094 return
          </CharString>
          <CharString index="227">
            -47 -70.99000549316406 -59 -102.00999450683594 hhcurveto
            hintmask 01011000
            -153 -40 172 65 callgsubr
            hhcurveto
            -157 -116 return
          </CharString>
          <CharString index="228">
            vvcurveto
            -142.99000549316406 -62 -137 -48 -47 vhcurveto
            return
          </CharString>
          <CharString index="229">
            -38 callsubr
            rlineto
            return
          </CharString>
          <CharString index="230">
            hstem
            2 callsubr
            vstem
            return
          </CharString>
          <CharString index="231">
            224.99000549316406 return
          </CharString>
          <CharString index="232">
            101.00999450683594 return
          </CharString>
          <CharString index="233">
            83.99000549316406 return
          </CharString>
          <CharString index="234">
            -63.02000427246094 return
          </CharString>
          <CharString index="235">
            44 132 callgsubr
            return
          </CharString>
          <CharString index="236">
            43 973.9900054931641 140 return
          </CharString>
          <CharString index="237">
            1800.990005493164 rmoveto
            -70 47.99000549316406 -40 58 64 57.02000427246094 47 callsubr
            vhcurveto
            return
          </CharString>
          <CharString index="238">
            1224.990005493164 1530 rmoveto
            -658 -1530 rlineto
            145 hlineto
            658 1530 rlineto
            -145 hlineto
            return
          </CharString>
          <CharString index="239">
            237 callsubr
            -40 104 callgsubr
            return
          </CharString>
          <CharString index="240">
            hhcurveto
            -151 -157 -72.99000549316406 -184.02000427246094 return
          </CharString>
          <CharString index="241">
            hstemhm
            38.99000549316406 1556.990005493164 return
          </CharString>
          <CharString index="242">
            hstem
            26 callsubr
            return
          </CharString>
          <CharString index="243">
            hstemhm
            89 callsubr
            1328 return
          </CharString>
          <CharString index="244">
            1683.990005493164 rmoveto
            return
          </CharString>
          <CharString index="245">
            90.99000549316406 return
          </CharString>
          <CharString index="246">
            552.9799957275391 return
          </CharString>
          <CharString index="247">
            -103.02000427246094 return
          </CharString>
          <CharString index="248">
            30.990005493164062 return
          </CharString>
          <CharString index="249">
            31.990005493164062 return
          </CharString>
          <CharString index="250">
            -122 -13.990005493164062 148 -168 hhcurveto
            -44 callsubr
            103 callsubr
            return
          </CharString>
          <CharString index="251">
            -23 callsubr
            203 callgsubr
            -38 callgsubr
            return
          </CharString>
          <CharString index="252">
            -133 -41 -10 168 callgsubr
            return
          </CharString>
          <CharString index="253">
            265.00999450683594 270.99000549316406 -92 44 -248.02000427246094 234 callsubr
            return
          </CharString>
          <CharString index="254">
            338.99000549316406 -93.02999877929688 118 -240.99000549316406 -85 callgsubr
            vhcurveto
            endchar
          </CharString>
          <CharString index="255">
            -151 -157 11 callsubr
            -183.99000549316406 return
          </CharString>
          <CharString index="256">
            -120.02000427246094 return
          </CharString>
          <CharString index="257">
            171.99000549316406 return
          </CharString>
          <CharString index="258">
            239.97999572753906 return
          </CharString>
          <CharString index="259">
            -32.99000549316406 return
          </CharString>
          <CharString index="260">
            96 427.99000549316406 127 430.989990234375 128 hstem
            222 callsubr
            915 vstem
            return
          </CharString>
          <CharString index="261">
            129 callsubr
            -58.96000671386719 198 callgsubr
            192.97999572753906 return
          </CharString>
          <CharString index="262">
            176 callsubr
            -82 callgsubr
            return
          </CharString>
          <CharString index="263">
            7 11 -17 218 callgsubr
            23 return
          </CharString>
          <CharString index="264">
            -77 callgsubr
            rrcurveto
            return
          </CharString>
          <CharString index="265">
            -65 -77 callsubr
            -13 callgsubr
            137 callgsubr
            return
          </CharString>
          <CharString index="266">
            166 callsubr
            vhcurveto
            return
          </CharString>
          <CharString index="267">
            624 -14.990005493164062 43 -29.009994506835938 43 -42 43 1353.979995727539 125 return
          </CharString>
          <CharString index="268">
            77 182.99000549316406 2 hvcurveto
            165 1 149 callsubr
            88 206 callgsubr
            hhcurveto
            return
          </CharString>
          <CharString index="269">
            -3 rrcurveto
            91 callgsubr
            -116 4.0099945068359375 7.9900054931640625 -61 hvcurveto
            endchar
          </CharString>
          <CharString index="270">
            248 222.99000549316406 return
          </CharString>
          <CharString index="271">
            20.990005493164062 return
          </CharString>
          <CharString index="272">
            822.9799957275391 return
          </CharString>
          <CharString index="273">
            -87 callsubr
            3 callgsubr
            91 callgsubr
            46 callsubr
            return
          </CharString>
          <CharString index="274">
            965.9799957275391 719.0099945068359 hstem
            286.4700012207031 158.50999450683594 return
          </CharString>
          <CharString index="275">
            -120 56 callsubr
            return
          </CharString>
          <CharString index="276">
            0 129 callsubr
            return
          </CharString>
          <CharString index="277">
            rmoveto
            -235.99000549316406 -1007 rlineto
            return
          </CharString>
          <CharString index="278">
            rlineto
            -63 callgsubr
            return
          </CharString>
          <CharString index="279">
            1314.979995727539 rmoveto
            return
          </CharString>
          <CharString index="280">
            103.02000427246094 return
          </CharString>
          <CharString index="281">
            -77.99000549316406 return
          </CharString>
          <CharString index="282">
            25.990005493164062 return
          </CharString>
          <CharString index="283">
            271.99000549316406 return
          </CharString>
          <CharString index="284">
            231.99000549316406 return
          </CharString>
          <CharString index="285">
            21 -1307.009994506836 243 callgsubr
            18 1307.009994506836 rlineto
            -187 hlineto
            return
          </CharString>
          <CharString index="286">
            -460 -190.99000549316406 71 callsubr
            1709.990005493164 110 hstem
            return
          </CharString>
          <CharString index="287">
            1334.990005493164 rmoveto
            18 callgsubr
            return
          </CharString>
          <CharString index="288">
            -70 rlineto
            -38 vlineto
            38 -10 34 209 callgsubr
            return
          </CharString>
          <CharString index="289">
            68 94 101 82 114 rlinecurve
            -130 68 rlineto
            return
          </CharString>
          <CharString index="290">
            97 callgsubr
            58 callsubr
            vhcurveto
            return
          </CharString>
          <CharString index="291">
            112.99000549316406 return
          </CharString>
          <CharString index="292">
            -44.99000549316406 return
          </CharString>
          <CharString index="293">
            102.99000549316406 return
          </CharString>
          <CharString index="294">
            -84.00999450683594 return
          </CharString>
          <CharString index="295">
            -57.02000427246094 return
          </CharString>
          <CharString index="296">
            136.99000549316406 return
          </CharString>
          <CharString index="297">
            150 -166 226 callsubr
            return
          </CharString>
          <CharString index="298">
            112 -0.9799957275390625 79 -58 -105 vvcurveto
            -44 callsubr
            -86 -51 return
          </CharString>
          <CharString index="299">
            -62 -99 callsubr
            -61 callsubr
            918.9900054931641 122 return
          </CharString>
          <CharString index="300">
            hstemhm
            182.99000549316406 166 return
          </CharString>
          <CharString index="301">
            hstemhm
            110 164.99000549316406 return
          </CharString>
          <CharString index="302">
            43 1347.979995727539 131 return
          </CharString>
          <CharString index="303">
            -40 79 callsubr
            return
          </CharString>
          <CharString index="304">
            1321.979995727539 rmoveto
            return
          </CharString>
          <CharString index="305">
            hintmask 11011100
            329.00999450683594 -169 vlineto
            hintmask 11101100
            -329.00999450683594 return
          </CharString>
          <CharString index="306">
            168 callsubr
            34 209 callgsubr
            return
          </CharString>
          <CharString index="307">
            -57 -115 -115 2 -127.02000427246094 rrcurveto
            223 callgsubr
            return
          </CharString>
          <CharString index="308">
            224 callgsubr
            -63 callgsubr
            return
          </CharString>
          <CharString index="309">
            -97.02000427246094 return
          </CharString>
          <CharString index="310">
            -26.990005493164062 return
          </CharString>
          <CharString index="311">
            -56.02000427246094 return
          </CharString>
          <CharString index="312">
            -82.99000549316406 return
          </CharString>
          <CharString index="313">
            -4.0200042724609375 return
          </CharString>
          <CharString index="314">
            247.99000549316406 return
          </CharString>
          <CharString index="315">
            -46.97999572753906 return
          </CharString>
          <CharString index="316">
            -103 callgsubr
            hstem
            486.99000549316406 219 callsubr
            return
          </CharString>
          <CharString index="317">
            rmoveto
            -542.9900054931641 -124 542.9900054931641 124 hlineto
            return
          </CharString>
          <CharString index="318">
            80 callsubr
            hstem
            203.97999572753906 109.00999450683594 return
          </CharString>
          <CharString index="319">
            514 0 140 callgsubr
            1302.989990234375 124 hstemhm
            return
          </CharString>
          <CharString index="320">
            6 callsubr
            hintmask 0000000000000000
            return
          </CharString>
          <CharString index="321">
            -216 0 43 655.9799957275391 131 561 131 return
          </CharString>
          <CharString index="322">
            -23 -35 -173 -214 -37 -40 rrcurveto
            return
          </CharString>
          <CharString index="323">
            -79 callgsubr
            hintmask 00000000
            return
          </CharString>
          <CharString index="324">
            547.9799957275391 172 return
          </CharString>
          <CharString index="325">
            149.99000549316406 vstem
            return
          </CharString>
          <CharString index="326">
            160.99000549316406 return
          </CharString>
          <CharString index="327">
            102.00999450683594 return
          </CharString>
          <CharString index="328">
            141.99000549316406 return
          </CharString>
          <CharString index="329">
            240.99000549316406 return
          </CharString>
          <CharString index="330">
            -73.00999450683594 return
          </CharString>
          <CharString index="331">
            -35 48 3 callgsubr
            -62 -54 -74 vhcurveto
            hintmask 11101000
            return
          </CharString>
          <CharString index="332">
            -144.02000427246094 -68.00999450683594 -88 -21 -39 vhcurveto
            return
          </CharString>
          <CharString index="333">
            hhcurveto
            11 callgsubr
            -118 -81 2 callgsubr
            return
          </CharString>
          <CharString index="334">
            -274 263 return
          </CharString>
          <CharString index="335">
            -37 57.02000427246094 256 callgsubr
            return
          </CharString>
          <CharString index="336">
            182 callgsubr
            169 return
          </CharString>
          <CharString index="337">
            46 77 65 152 callsubr
            -87 callsubr
            return
          </CharString>
          <CharString index="338">
            hvcurveto
            152 callgsubr
            vlineto
            -53 -77 callsubr
            return
          </CharString>
          <CharString index="339">
            158 callgsubr
            71 71 return
          </CharString>
          <CharString index="340">
            1659.990005493164 rmoveto
            72 -71 return
          </CharString>
          <CharString index="341">
            -202 -244 202 -97 -46 return
          </CharString>
          <CharString index="342">
            hstemhm
            117 callgsubr
            1114 return
          </CharString>
          <CharString index="343">
            115.02000427246094 return
          </CharString>
          <CharString index="344">
            36 -262 234 return
          </CharString>
          <CharString index="345">
            124.00999450683594 return
          </CharString>
          <CharString index="346">
            253.99000549316406 return
          </CharString>
          <CharString index="347">
            878.9799957275391 return
          </CharString>
          <CharString index="348">
            85.02000427246094 return
          </CharString>
          <CharString index="349">
            43 -42 43 hstemhm
            return
          </CharString>
          <CharString index="350">
            -71 -66 callsubr
            50 -50.970001220703125 return
          </CharString>
          <CharString index="351">
            -77 callsubr
            rlineto
            63 149 callgsubr
            return
          </CharString>
          <CharString index="352">
            -269 243 callgsubr
            return
          </CharString>
          <CharString index="353">
            -398.99000549316406 rmoveto
            return
          </CharString>
          <CharString index="354">
            rlineto
            10 callsubr
            return
          </CharString>
          <CharString index="355">
            -115 197 -185 return
          </CharString>
          <CharString index="356">
            rmoveto
            64 callsubr
            return
          </CharString>
          <CharString index="357">
            177 callsubr
            hstemhm
            return
          </CharString>
          <CharString index="358">
            105 callgsubr
            268 -269 rlineto
            return
          </CharString>
          <CharString index="359">
            hstemhm
            139.97999572753906 162.00999450683594 return
          </CharString>
          <CharString index="360">
            10 -24 callsubr
            10 callgsubr
            return
          </CharString>
          <CharString index="361">
            109 -205 281 359 vvcurveto
            384 return
          </CharString>
          <CharString index="362">
            1689.990005493164 rmoveto
            65 return
          </CharString>
          <CharString index="363">
            -14.990005493164062 150 return
          </CharString>
          <CharString index="364">
            6.9900054931640625 return
          </CharString>
          <CharString index="365">
            -118 -6 -57 -47 return
          </CharString>
          <CharString index="366">
            64 57 46 77 65 return
          </CharString>
          <CharString index="367">
            40.97999572753906 return
          </CharString>
          <CharString index="368">
            456.99000549316406 return
          </CharString>
          <CharString index="369">
            194.99000549316406 return
          </CharString>
          <CharString index="370">
            116.00999450683594 return
          </CharString>
          <CharString index="371">
            hlineto
            hintmask 01110100
            33 357.99000549316406 rlineto
            return
          </CharString>
          <CharString index="372">
            97 -63 callgsubr
            274 263 return
          </CharString>
          <CharString index="373">
            -45 callsubr
            -49 callgsubr
            return
          </CharString>
          <CharString index="374">
            -77 -51 -142 -97 -149 hhcurveto
            endchar
          </CharString>
        <CharString name=".notdef">
          571 0 218.99000549316406 973.989990234375 223 hstem
          227.97999572753906 229 960.010009765625 227 vstem
          227.97999572753906 1415.990005493164 rmoveto
          -1415.990005493164 1416.009994506836 1415.990005493164 -1416.009994506836 vlineto
          705 -828.9900054931641 rmoveto
          -347 -368 -128 144 357.99000549316406 342 -358.99000549316406 363.00999450683594 123 -40 callsubr
          356.99000549316406 -367.99000549316406 352.00999450683594 366 128 -124 -363.00999450683594 -357.99000549316406 363.00999450683594 -368 -122 -122 -362 368 rlineto
          endchar
        </CharString>
        <CharString name="A">
          -78 callsubr
          136 callsubr
          hintmask 11011000
          1177.990005493164 hmoveto
          -100 callgsubr
          hintmask 11101000
          -84 callgsubr
          hintmask 11011000
          -574 hlineto
          endchar
        </CharString>
        <CharString name="AE">
          121 callgsubr
          hstemhm
          838.9799957275391 169 hintmask 11110100
          1007.9799957275391 133 -18 callgsubr
          hintmask 11101100
          414 866 rlineto
          141 callsubr
          -866 hlineto
          hintmask 11110100
          -444.99000549316406 hlineto
          endchar
        </CharString>
        <CharString name="AEacute">
          121 callgsubr
          138.010009765625 43 hstemhm
          838.9799957275391 169 hintmask 11110110
          1356.979995727539 73 callsubr
          -349 -1740 -18 callgsubr
          hintmask 11101110
          414 866 rlineto
          141 callsubr
          -866 hlineto
          hintmask 11110110
          -444.99000549316406 hlineto
          endchar
        </CharString>
        <CharString name="Aacute">
          -78 callsubr
          122.010009765625 43 136 callsubr
          hintmask 11011100
          1036.979995727539 73 callsubr
          141 -1873 rmoveto
          -100 callgsubr
          hintmask 11101100
          -84 callgsubr
          hintmask 11011100
          -574 hlineto
          endchar
        </CharString>
        <CharString name="Abreve">
          -78 callsubr
          104 132 136 callsubr
          hintmask 11011100
          698 1641.979995727539 rmoveto
          17 callgsubr
          -1 -50 callsubr
          -146 -190 14 callsubr
          -173 -12 125.99000549316406 -152 224 hhcurveto
          479.99000549316406 -1641.979995727539 rmoveto
          -100 callgsubr
          hintmask 11101100
          -84 callgsubr
          hintmask 11011100
          -574 hlineto
          endchar
        </CharString>
        <CharString name="Acircumflex">
          -80 callgsubr
        </CharString>
        <CharString name="Adieresis">
          -78 callsubr
          152 250 callsubr
          345.97999572753906 124 callsubr
          254.02000427246094 189 callgsubr
          hintmask 11011110
          449.99000549316406 255 callsubr
          -49 callgsubr
          46 77 65 -33 -87 callsubr
          -71 -61.99000549316406 87 callgsubr
          -72 -61 91 callgsubr
          46 callsubr
          77 callsubr
          hvcurveto
          207 callsubr
          -1689.990005493164 rmoveto
          -100 callgsubr
          hintmask 11101110
          -84 callgsubr
          hintmask 11011110
          -574 hlineto
          endchar
        </CharString>
        <CharString name="Agrave">
          -78 callsubr
          122.010009765625 43 136 callsubr
          hintmask 11011100
          746.9900054931641 232 callsubr
          -45 132 callsubr
          93.99000549316406 -99 182 -129 111 -56 rlinecurve
          431 -1588.979995727539 rmoveto
          -100 callgsubr
          hintmask 11101100
          -84 callgsubr
          hintmask 11011100
          -574 hlineto
          endchar
        </CharString>
        <CharString name="Amacron">
          -78 callsubr
          205.010009765625 124 hstemhm
          428.99000549316406 542.9799957275391 hintmask 00000000
          hintmask 11011100
          971.9799957275391 1867 210 callsubr
          206 -1867 rmoveto
          -100 callgsubr
          hintmask 11101100
          -84 callgsubr
          hintmask 11011100
          -574 hlineto
          endchar
        </CharString>
        <CharString name="Aogonek">
          92 -512 113 399 -74 callsubr
          hstemhm
          901.9799957275391 164 hintmask 11101100
          1216 246 callsubr
          187 callsubr
          -64 175 callsubr
          93 -2 hvcurveto
          -1 117 157 66 callgsubr
          220 callsubr
          -49 callgsubr
          rrcurveto
          37 hlineto
          -574.0200042724609 1537.990005493164 rlineto
          -165.99000549316406 hlineto
          -588 -1537.990005493164 rlineto
          180 hlineto
          153 418 rlineto
          664.9900054931641 hlineto
          147 -418 rlineto
          13 hlineto
          -44 callsubr
          -59 -171.99000549316406 -112.99000549316406 -66 callsubr
          -140 rrcurveto
          -136 1 66 callgsubr
          -64 133 hhcurveto
          142 callgsubr
          -38 callsubr
          211 callgsubr
          -57 -14 -51 -62 callgsubr
          rrcurveto
          -803 943.9799957275391 rmoveto
          hintmask 11110100
          -84 callgsubr
          hintmask 11101100
          -574 hlineto
          endchar
        </CharString>
        <CharString name="Aring">
          92 0 43 374.99000549316406 127 1332 95 hstem
          387.99000549316406 -44 callgsubr
          382.00999450683594 140 callgsubr
          vstem
          1177.990005493164 hmoveto
          183 hlineto
          -550.0099945068359 1473.990005493164 111 30 83 77 -66 callsubr
          138 rlinecurve
          165 1 71 callgsubr
          88 -189 hhcurveto
          148 callsubr
          -85 callgsubr
          hvcurveto
          -2 -132.02000427246094 78 127 callgsubr
          -61 callsubr
          -30 -561.9900054931641 -1468.990005493164 rcurveline
          180 hlineto
          153 418 rlineto
          664.9900054931641 hlineto
          147 -418 rlineto
          -671 1721 rmoveto
          121 1 80 callsubr
          35 93 hhcurveto
          185 callgsubr
          -1 79.02000427246094 -53 -105 vvcurveto
          173 callgsubr
          -86.02000427246094 91 callsubr
          12 callgsubr
          1 vhcurveto
          -32 callsubr
          2 -70 106 callsubr
          0.9900054931640625 125 callsubr
          rrcurveto
          -93.99000549316406 -1176 rmoveto
          -84 callgsubr
          -574 hlineto
          endchar
        </CharString>
        <CharString name="Atilde">
          -78 callsubr
          129.010009765625 127 27 122.97999572753906 136 callsubr
          hintmask 00000000
          hintmask 11011110
          538.9900054931641 1821 rmoveto
          hintmask 11011010
          -18 callsubr
          -67.02000427246094 -49 callgsubr
          rlineto
          -45 -45 callsubr
          11 callsubr
          -60 -81 hhcurveto
          hintmask 11011110
          -121 265 callgsubr
          11 callgsubr
          -118.00999450683594 -81 2 callgsubr
          -42 hvcurveto
          242 callgsubr
          -54 rlineto
          46 -60 callgsubr
          67.00999450683594 62 80 hhcurveto
          hintmask 11011010
          639 -1821 rmoveto
          -100 callgsubr
          hintmask 11101010
          -84 callgsubr
          hintmask 11011010
          -574 hlineto
          endchar
        </CharString>
        <CharString name="B">
          113 callgsubr
          hstemhm
          -73 callsubr
          -40 callgsubr
          597.9999847412109 164 -66.989990234375 150 callsubr
          hintmask 00000000
          hintmask 01101101
          -73 callsubr
          1523 rmoveto
          -1523 89 vlineto
          hintmask 10110101
          31 callsubr
          hintmask 10110110
          66 callsubr
          hintmask 01101101
          -92 1 rlineto
          hintmask 10110110
          7 callsubr
          hintmask 10110101
          24 callgsubr
        </CharString>
        <CharString name="C">
          -2 callsubr
          hstem
          -50 callgsubr
          -40 callgsubr
          vstem
          802.9799957275391 1537.990005493164 -102 callgsubr
        </CharString>
        <CharString name="CR">
          -1301 endchar
        </CharString>
        <CharString name="Cacute">
          -2 callsubr
          122.00999450683594 43 hstem
          -50 callgsubr
          -40 callgsubr
          vstem
          682.9900054931641 -65 callgsubr
          80 callgsubr
          -122 -102 callgsubr
        </CharString>
        <CharString name="Ccaron">
          -2 callsubr
          129.00999450683594 113 hstem
          -50 callgsubr
          -40 callgsubr
          vstem
          460.97999572753906 251 callsubr
          148 hlineto
          179 callgsubr
          202 callsubr
          -46 rlineto
          342 -398 -102 callgsubr
        </CharString>
        <CharString name="Ccedilla">
          27 -463.99000549316406 -44 callgsubr
          330.00999450683594 132.97999572753906 1282.000015258789 137.99000549316406 hstem
          -50 callgsubr
          -40 callgsubr
          480.00999450683594 5 callgsubr
          vstem
          1196.990005493164 207.99000549316406 rmoveto
          -35 -54 -151 -55 -189.99000549316406 hhcurveto
          -334.00999450683594 -193 277.00999450683594 371 406 221 228 316.00999450683594 229 88.99000549316406 -55 -14.990005493164062 46 hvcurveto
          24 150 rlineto
          14.009994506835938 -61.99000549316406 -104 -87 callsubr
          -231.02000427246094 hhcurveto
          -380.99000549316406 -315 -280 -503.99000549316406 -442 207 callsubr
          -302 389.02000427246094 -24 hvcurveto
          11 -45 callsubr
          7 -52 -7 -76 rrcurveto
          258 callsubr
          257 callgsubr
          hhcurveto
          -36.99000549316406 -36 70 callsubr
          258 callgsubr
          89.99000549316406 -11.020004272460938 75.02000427246094 -23.990005493164062 52 179 7.9900054931640625 87 -87 callsubr
          126 callsubr
          27.020004272460938 40 callgsubr
          rcurveline
          endchar
        </CharString>
        <CharString name="Ccircumflex">
          -2 callsubr
          101.01998901367188 -72 callsubr
          -50 callgsubr
          -40 callgsubr
          hintmask 00000000
          hintmask 11010110
          449.99000549316406 137 callsubr
          hintmask 11100110
          104 -45 248.02000427246094 -3 callgsubr
          hintmask 11001110
          18 callsubr
          -149 hlineto
          hintmask 11010110
          217 callgsubr
          rlineto
          hintmask 11001110
          352.99000549316406 -146 -102 callgsubr
        </CharString>
        <CharString name="Cdotaccent">
          -2 callsubr
          153.00999450683594 -62 callsubr
          -50 callgsubr
          -40 callgsubr
          413.99998474121094 227 hintmask 11011100
          688.9900054931641 -54 callgsubr
          hintmask 11101100
          114 callsubr
          hintmask 11011100
          -8 callgsubr
          hvcurveto
          -22 callgsubr
          -263 -102 callgsubr
        </CharString>
        <CharString name="D">
          22 callsubr
          -14 callsubr
          833 176 hintmask 00000000
          hintmask 01101100
          -73 callsubr
          1521.990005493164 -41 callgsubr
          hintmask 10011100
          -101 callsubr
          -120 -123 -13 -95 hhcurveto
          hintmask 01101100
          -26 callgsubr
          hintmask 10011100
          459 -1412 16 callsubr
        </CharString>
        <CharString name="Dcaron">
          22 callsubr
          131 113 -14 callsubr
          833 176 hintmask 10011110
          372.97999572753906 -69 callgsubr
          -244 202 202 callsubr
          -46 rlineto
          hintmask 01101110
          -167 -414 -41 callgsubr
          hintmask 10011110
          -101 callsubr
          -120 -123 -13 -95 hhcurveto
          hintmask 01101110
          -26 callgsubr
          hintmask 10011110
          459 -1412 16 callsubr
        </CharString>
        <CharString name="Dcroat">
          -91 callgsubr
        </CharString>
        <CharString name="E">
          -98 0 -64 callgsubr
          78 callgsubr
          -73 callsubr
          1521.990005493164 -93 callgsubr
        </CharString>
        <CharString name="Eacute">
          -98 0 -64 callgsubr
          138.010009765625 43 78 callgsubr
          139 callsubr
          233 callsubr
          124 -42 callsubr
          91 callsubr
          -36 rlinecurve
          -347 -138 -93 callgsubr
        </CharString>
        <CharString name="Ebreve">
          -98 0 -64 callgsubr
          120 132 78 callgsubr
          334.99000549316406 68 callsubr
          224 hhcurveto
          211.99000549316406 137 152 173 -12 hvcurveto
          90 callsubr
          hlineto
          208 callsubr
          -1 -32 -146 -190 14 callsubr
          -129 -444.99000549316406 -93 callgsubr
        </CharString>
        <CharString name="Ecaron">
          -98 0 -64 callgsubr
          145.010009765625 113 78 callgsubr
          331.97999572753906 -69 callgsubr
          -244 202 259 callgsubr
          -46 rlineto
          -126 -414 -93 callgsubr
        </CharString>
        <CharString name="Ecircumflex">
          -98 0 -64 callgsubr
          117.02000427246094 -72 callsubr
          -73 callsubr
          169 hintmask 00000000
          hintmask 11101011
          320.97999572753906 137 callsubr
          hintmask 11110011
          104 -45 248 -3 callgsubr
          hintmask 11100111
          18 callsubr
          90 callgsubr
          hlineto
          hintmask 11101011
          -277.02000427246094 -298 rlineto
          hintmask 11100111
          -115 -162 -93 callgsubr
        </CharString>
        <CharString name="Edieresis">
          -98 0 -64 callgsubr
          168 231.99000549316406 -14 callsubr
          -54.010009765625 225 254 189 callgsubr
          hintmask 00000000
          hintmask 11110110
          320.97999572753906 1797.979995727539 rmoveto
          -45 callgsubr
          57 65 119 callsubr
          231 callgsubr
          -70.99000549316406 -62 -6 callgsubr
          -33 -87 callsubr
          -72 -77 callgsubr
          -60 115 callsubr
          hintmask 11111000
          -594 -275.99000549316406 -93 callgsubr
        </CharString>
        <CharString name="Edotaccent">
          -98 0 -64 callgsubr
          199 callgsubr
          -73 callsubr
          169 184.989990234375 227 hintmask 11101110
          559.9799957275391 -54 callgsubr
          hintmask 11110110
          114 callsubr
          hintmask 11101110
          -8 callgsubr
          hvcurveto
          -354 -279 -93 callgsubr
        </CharString>
        <CharString name="Egrave">
          -98 0 -64 callgsubr
          138.010009765625 43 78 callgsubr
          721.9799957275391 232 callsubr
          -45 -5 callgsubr
          -516 -13 callsubr
          -93 callgsubr
        </CharString>
        <CharString name="Emacron">
          -98 0 -64 callgsubr
          221.010009765625 124 -14 callsubr
          27.989990234375 543 hintmask 00000000
          hintmask 11111100
          402.97999572753906 1867 rmoveto
          -124 543.0099945068359 124 -543.0099945068359 vlineto
          hintmask 11111000
          -197 -345 -93 callgsubr
        </CharString>
        <CharString name="Eng">
          279 -81 callgsubr
          hstem
          205.47999572753906 165.50999450683594 831.0000152587891 -24 callgsubr
          vstem
          1201.990005493164 122 callgsubr
          -999 vlineto
          116 callsubr
          -304 -134 235.99000549316406 -720 1067.009994506836 rlineto
          -158 hlineto
          1 -75 callsubr
          rlineto
          165 971.9799957275391 hlineto
          -9.020004272460938 314 144.02000427246094 -245.99000549316406 682.9900054931641 -1005.0200042724609 -85 callgsubr
          -133.97999572753906 -209 -166.99000549316406 -199 -57 rlinecurve
          44 257 callgsubr
          186 29 244 137.02000427246094 69 228.99000549316406 rlinecurve
          42 122 5 139 152 vvcurveto
          1117 -165.99000549316406 vlineto
          endchar
        </CharString>
        <CharString name="Eogonek">
          -98 -512 113 399 -64 callgsubr
          104 callsubr
          252 164 vstem
          1058 hmoveto
          116 callgsubr
          133 -762 588 503.00999450683594 -61 callsubr
          -503.00999450683594 539 689.0099945068359 131 -858.0099945068359 -75 callsubr
          717 hlineto
          -141 -58 -157 -122 2 -139 rrcurveto
          -136 1 105.99000549316406 -57 134 hhcurveto
          82 -4 callgsubr
          21 41 53 hvcurveto
          152 callgsubr
          vlineto
          -52 -77 callsubr
          188 callsubr
          -14 128 callgsubr
          -62 callgsubr
          rrcurveto
          -83 -65 175 callsubr
          93 -62 callgsubr
          hvcurveto
          -2 117 161 66 callgsubr
          108.00999450683594 -49 callgsubr
          rrcurveto
          endchar
        </CharString>
        <CharString name="Eth">
          -91 callgsubr
        </CharString>
        <CharString name="Euro">
          221 -28 117 callsubr
          432.010009765625 110 262 108.99000549316406 403.00999450683594 127 hstem
          310.97999572753906 182 vstem
          1324.990005493164 186.97999572753906 rmoveto
          -41.99000549316406 -75 -132.02000427246094 -50 107 callgsubr
          hhcurveto
          -264.00999450683594 150 callgsubr
          173 259.00999450683594 -42 hvcurveto
          561.9900054931641 110 -573.9900054931641 hlineto
          -4 42 -1 42.99000549316406 45.02000427246094 vvcurveto
          47 -66 callsubr
          -87 callsubr
          258 callgsubr
          41 vhcurveto
          605 108.99000549316406 -587.0200042724609 hlineto
          274 64 178 129 209 hhcurveto
          165 -1 88.99000549316406 -27 149 callgsubr
          -42 41 134 rcurveline
          -82 164 callsubr
          187 callsubr
          48 -203 -6 -321 -8.990005493164062 -227.99000549316406 -191 -81 -330.02000427246094 rrcurveto
          -193 -108.99000549316406 173 hlineto
          63 callsubr
          -56 -4 -60 -63 vvcurveto
          -28 1 -28.020004272460938 1 -27 vhcurveto
          -194 -110 206 hlineto
          -336 53 198.99000549316406 -218.99000549316406 342.02000427246094 hhcurveto
          289 75 74.97999572753906 14 88 hvcurveto
          -46 126 rlineto
          endchar
        </CharString>
        <CharString name="F">
          214 callsubr
          78 callgsubr
          -73 callsubr
          1521.990005493164 74 callsubr
        </CharString>
        <CharString name="G">
          -59 callsubr
          229 callgsubr
          841.9900054931641 750 -105 callgsubr
          endchar
        </CharString>
        <CharString name="Gbreve">
          -59 callsubr
          104.00999450683594 132 229 callgsubr
          819 1641.979995727539 rmoveto
          31 callgsubr
          -173 -12 125.99000549316406 -152 224.02000427246094 hhcurveto
          23 -891.9900054931641 -105 callgsubr
          endchar
        </CharString>
        <CharString name="Gcaron">
          -59 callsubr
          129.02000427246094 113 229 callgsubr
          892.9900054931641 260 callgsubr
          rmoveto
          179 callgsubr
          -97 -46 252 callgsubr
          -51 -917 -105 callgsubr
          endchar
        </CharString>
        <CharString name="Gcircumflex">
          -59 callsubr
          101.02999877929688 43 4 43 132.97999572753906 120.00999450683594 hstemhm
          134 callgsubr
          hintmask 11101111
          817.9900054931641 196 callgsubr
          hintmask 11110111
          244 -222.99000549316406 rlineto
          hintmask 11101111
          18 callsubr
          -149 hlineto
          hintmask 11110111
          217 callgsubr
          104.02000427246094 -45 rlineto
          hintmask 11101111
          163 callsubr
          rlineto
          24 -1111.990005493164 -105 callgsubr
          endchar
        </CharString>
        <CharString name="Gcommaaccent">
          141 -559.9900054931641 43 501 129.99000549316406 509 127 654.9799957275391 -53 callsubr
          hstem
          96 callgsubr
          496 143 233 163 vstem
          841.9900054931641 750 -105 callgsubr
          -12 -846.9900054931641 rmoveto
          -120.00999450683594 -70 rlineto
          -38 vlineto
          38 60 callsubr
          -46.02000427246094 77.99000549316406 108 callgsubr
          22.020004272460938 vhcurveto
          endchar
        </CharString>
        <CharString name="Gdotaccent">
          -59 callsubr
          153.02000427246094 -62 callsubr
          96 callgsubr
          420 227 225 163 hintmask 11101111
          811.9900054931641 247 callgsubr
          64 57 47 callsubr
          hvcurveto
          hintmask 11110111
          62 -33 97 callgsubr
          -72 -8 callgsubr
          vhcurveto
          hintmask 11101111
          -70 48 -40 58 vhcurveto
          30 -941 -105 callgsubr
          endchar
        </CharString>
        <CharString name="Gtilde">
          -59 callsubr
          129.02000427246094 136 callgsubr
          134 callgsubr
          hintmask 00000000
          hintmask 11111110
          658.9799957275391 1821 rmoveto
          hintmask 11110110
          123 15.009994506835938 -154 166 hhcurveto
          107 116.97999572753906 79.99000549316406 96.02000427246094 43 hvcurveto
          -13 callsubr
          -49 callgsubr
          rlineto
          -45 -38 -13 callsubr
          -60 -81 hhcurveto
          hintmask 11111110
          -121.02000427246094 -14.990005493164062 150 -166.02000427246094 226 callsubr
          -42 hvcurveto
          66 -54 rlineto
          46 38.02000427246094 -23 callgsubr
          62 79.99000549316406 hhcurveto
          hintmask 11110110
          183 -1071 -105 callgsubr
          endchar
        </CharString>
        <CharString name="H">
          241 0 43 666.9799957275391 130 641.0500030517578 229 callsubr
          792 169 vstem
          -73 callsubr
          1521.990005493164 72 callsubr
        </CharString>
        <CharString name="Hbar">
          249 0 43 659.9900054931641 129.99000549316406 251.99998474121094 71 callsubr
          12 callgsubr
          437 -14 callsubr
          800 169 hintmask 11101100
          1559 1192.979995727539 rmoveto
          -215 hlineto
          198 callsubr
          -800.0099945068359 vlineto
          198 callsubr
          205 callgsubr
          -108 262 callsubr
          -1084.990005493164 169 703 800.0099945068359 -703 169 1084.990005493164 215 108 vlineto
          -384 -360 rmoveto
          -800.0099945068359 252 800.0099945068359 -252 hlineto
          endchar
        </CharString>
        <CharString name="Hcircumflex">
          241 0 43 666.9799957275391 130 641.0500030517578 100 callgsubr
          -73 callsubr
          169 792 169 hintmask 0000000000000000
          hintmask 1110101110000000
          419.97999572753906 137 callsubr
          hintmask 1111001110000000
          104 -45 248 -3 callgsubr
          hintmask 1110011110000000
          18 callsubr
          90 callgsubr
          hlineto
          hintmask 1110101110000000
          -277.02000427246094 -298 rlineto
          hintmask 1110011110000000
          -214 -162 72 callsubr
        </CharString>
        <CharString name="I">
          -688 -81 callgsubr
          hstem
          39 callsubr
          vstem
          221 1521.990005493164 -86 callgsubr
          endchar
        </CharString>
        <CharString name="I.uc">
          -52 callsubr
        </CharString>
        <CharString name="IJ">
          6 -81 callgsubr
          hstem
          39 callsubr
          514.0099945068359 150 callsubr
          vstem
          221 1521.990005493164 -47 callsubr
        </CharString>
        <CharString name="IJ_acutecomb">
          6 -81 callgsubr
          137 242 callsubr
          39 callsubr
          514.0099945068359 150 callsubr
          hintmask 11011100
          36 callsubr
          hintmask 11101100
          673.0099945068359 -1 rmoveto
          71.99000549316406 -70.99000549316406 124 220 callgsubr
          0 callgsubr
          -111 102 -40 235 callgsubr
          -640 126 callgsubr
          -47 callsubr
        </CharString>
        <CharString name="Iacute">
          -688 -81 callgsubr
          138 43 hstem
          39 callsubr
          vstem
          36 callsubr
          33 -138 -86 callgsubr
          endchar
        </CharString>
        <CharString name="Ibreve">
          -688 -81 callgsubr
          119.989990234375 132 hstem
          39 callsubr
          vstem
          -31 68 callsubr
          224.02000427246094 hhcurveto
          31 callgsubr
          252 -444.99000549316406 -86 callgsubr
          endchar
        </CharString>
        <CharString name="Icircumflex">
          -688 0 43 1438.0299987792969 100 callgsubr
          39 callsubr
          hintmask 00000000
          hintmask 11010110
          185 callsubr
          137 callsubr
          hintmask 11100110
          103.97000122070312 -45 248.02000427246094 -3 callgsubr
          hintmask 11001110
          18 callsubr
          90 callgsubr
          hlineto
          hintmask 11010110
          -276.97999572753906 -298 rlineto
          hintmask 11001110
          265.97999572753906 -162 -86 callgsubr
          endchar
        </CharString>
        <CharString name="Idieresis">
          -688 -81 callgsubr
          167.989990234375 250 callsubr
          185 callsubr
          124 callsubr
          40.99000549316406 -79 callgsubr
          42.00999450683594 189 callgsubr
          hintmask 00000000
          hintmask 11111100
          185 callsubr
          1797.979995727539 rmoveto
          -69.97999572753906 153 callgsubr
          -38.02000427246094 57 65 56 231 callgsubr
          -71 -62 -58.97999572753906 115 callsubr
          478.97999572753906 hmoveto
          77 callsubr
          64 57 230 callsubr
          84 callgsubr
          -60 115 callsubr
          hintmask 11101000
          -213 -275.99000549316406 -86 callgsubr
          endchar
        </CharString>
        <CharString name="Idotaccent">
          -52 callsubr
        </CharString>
        <CharString name="Igrave">
          -688 -81 callgsubr
          138 43 hstem
          39 callsubr
          vstem
          355.97999572753906 232 callsubr
          -45 -5 callgsubr
          -134.99000549316406 -13 callsubr
          -86 callgsubr
          endchar
        </CharString>
        <CharString name="Imacron">
          -688 -81 callgsubr
          221 124 hstem
          39 callsubr
          vstem
          -60 callgsubr
          1867 56 callgsubr
          183 -345 -86 callgsubr
          endchar
        </CharString>
        <CharString name="Iogonek">
          -688 -512 113 399 -75 callgsubr
          hstemhm
          33.99000549316406 89 callgsubr
          23.020004272460938 216 callsubr
          hintmask 11111000
          351.99000549316406 246 callsubr
          -83 -70 40 92 -1 157 callgsubr
          117 89.99000549316406 -38 callsubr
          241 callsubr
          54 rrcurveto
          164 callsubr
          hlineto
          hintmask 11101000
          -63 callsubr
          -170.99000549316406 -75 callsubr
          21 vlineto
          hintmask 11111000
          -95.00999450683594 200 callsubr
          0.9799957275390625 111 -77 141 hhcurveto
          142 callgsubr
          89.99000549316406 211 callgsubr
          -58 -14 -52 -62 callgsubr
          rrcurveto
          endchar
        </CharString>
        <CharString name="Itilde">
          -688 -81 callgsubr
          145 136 callgsubr
          39 callsubr
          hintmask 00000000
          hintmask 11111000
          175 callgsubr
          250 callgsubr
          1 callgsubr
          -54 rlineto
          46 -60 callgsubr
          67.00999450683594 62 80 hhcurveto
          hintmask 11101000
          -18 callsubr
          11 callsubr
          -49 callgsubr
          rlineto
          -45 -45 callsubr
          -67.02000427246094 -60 -81 hhcurveto
          hintmask 11111000
          -121 -15 190 callsubr
          -41.99000549316406 hvcurveto
          hintmask 11101000
          323.97999572753906 -245 -86 callgsubr
          endchar
        </CharString>
        <CharString name="J">
          -607 1481.0299987792969 -103 callgsubr
          hstem
          292.97999572753906 172 vstem
          4 callgsubr
          -243 rmoveto
          52.97999572753906 -89 164 callgsubr
          44 237 callgsubr
          rlinecurve
          41 callsubr
          2 65 callgsubr
          -36 -44 callsubr
          vhcurveto
          -44 90 callgsubr
          -130 188 callgsubr
          -123.97999572753906 -34 rrcurveto
          endchar
        </CharString>
        <CharString name="Jcircumflex">
          -607 1481.0299987792969 100 callgsubr
          292.97999572753906 172 hintmask 00000000
          hintmask 10101100
          23.979995727539062 137 callsubr
          hintmask 11001100
          104.02000427246094 -45 207 callsubr
          -3 callgsubr
          hintmask 10011100
          18 callsubr
          -149 hlineto
          hintmask 10101100
          217 callgsubr
          rlineto
          -62.970001220703125 -1926.979995727539 rmoveto
          52.97999572753906 -89 rlineto
          hintmask 10011100
          164 callgsubr
          44 237 callgsubr
          rrcurveto
          41 callsubr
          2 65 callgsubr
          -36 -44 callsubr
          vhcurveto
          hintmask 10101100
          -44 90 callgsubr
          -130 188 callgsubr
          -123.97999572753906 -34 rrcurveto
          endchar
        </CharString>
        <CharString name="K">
          63 0 43 1438.0299987792969 229 callsubr
          -51 callsubr
          endchar
        </CharString>
        <CharString name="Kcommaaccent">
          63 -11 callsubr
          43 1438.0299987792969 229 callsubr
          286 -31 callgsubr
          -51 callsubr
          -501 -207.97000122070312 -2 callgsubr
        </CharString>
        <CharString name="L">
          -235 0 -15 callsubr
          vstem
          -73 callsubr
          1521.990005493164 162 callgsubr
        </CharString>
        <CharString name="Lacute">
          -235 0 -53 callsubr
          1348.0399932861328 -103 callgsubr
          138 43 hstem
          -73 callsubr
          172 vstem
          -79 callgsubr
          -65 callgsubr
          35 -138 162 callgsubr
        </CharString>
        <CharString name="Lcaron">
          -235 0 -15 callsubr
          380.989990234375 218 callsubr
          705.9900054931641 1062.990005493164 rmoveto
          142 callgsubr
          112 callgsubr
          -133.02000427246094 -41 -10 85 callsubr
          -500 459 162 callgsubr
        </CharString>
        <CharString name="Lcommaaccent">
          -235 -11 callsubr
          -15 callsubr
          180.989990234375 143 vstem
          -73 callsubr
          1521.990005493164 -41 callsubr
          300.00999450683594 -2049.979995727539 9 callgsubr
        </CharString>
        <CharString name="Ldot">
          35 0 -53 callsubr
          576 60 callgsubr
          507.04998779296875 182 callgsubr
          172 531.989990234375 233 vstem
          -73 callsubr
          1521.990005493164 -41 callsubr
          704 -689.0099945068359 rmoveto
          -74 2 51 128 callgsubr
          58 hhcurveto
          242 callgsubr
          59 59 81.97999572753906 -3 hvcurveto
          88 callsubr
          -1 -38 -49 callgsubr
          -72 hhcurveto
          -64 -59 -62 238 callgsubr
          1 hvcurveto
          endchar
        </CharString>
        <CharString name="Lslash">
          -235 0 -15 callsubr
          vstem
          378 133 rmoveto
          553.9900054931641 vlineto
          469 172 -41 106 -428 -158 rlineto
          715 -172 -778 vlineto
          -194 58 callsubr
          41 -104 153 -49 callgsubr
          rlineto
          -623.9799957275391 801 133 -628.9900054931641 vlineto
          endchar
        </CharString>
        <CharString name="M">
          160 callsubr
          hstemhm
          59 callgsubr
          1628.990005493164 hintmask 00111000
          310.97999572753906 122 callgsubr
          hintmask 01011000
          100 callsubr
          hintmask 10011000
          99 callsubr
          hintmask 00111000
          45 callgsubr
        </CharString>
        <CharString name="N">
          252 -43 callgsubr
          21 callgsubr
          hintmask 10011100
          1192.979995727539 122 callgsubr
          -996 vlineto
          hintmask 01011100
          -83 callsubr
          hintmask 10101100
          -83 callgsubr
          hlineto
          hintmask 10011100
          -155 hlineto
          endchar
        </CharString>
        <CharString name="NULL">
          -1301 endchar
        </CharString>
        <CharString name="Nacute">
          252 -43 callgsubr
          138 43 21 callgsubr
          hintmask 10011110
          1124.990005493164 35 callsubr
          71.99000549316406 -71 238 callsubr
          -14 callgsubr
          68 -351 -19 callsubr
        </CharString>
        <CharString name="Ncaron">
          252 -43 callgsubr
          145 113 21 callgsubr
          hintmask 10011110
          861.9799957275391 260 callgsubr
          rmoveto
          146 callsubr
          268 -269 rlineto
          186 callgsubr
          hlineto
          331 -145 -19 callsubr
        </CharString>
        <CharString name="Ncommaaccent">
          252 -11 callsubr
          -37 callgsubr
          62 callgsubr
          362.00999450683594 143 327 155 hintmask 11001101
          1192.979995727539 122 callgsubr
          -996 vlineto
          hintmask 10101101
          -83 callsubr
          hintmask 11010101
          -83 callgsubr
          hlineto
          hintmask 11001101
          -155 hlineto
          hintmask 11001111
          -421.99000549316406 -1618.979995727539 rmoveto
          -120 -70 rlineto
          -38 vlineto
          37.99000549316406 60 callsubr
          -46 77.99000549316406 -49 22.020004272460938 vhcurveto
          endchar
        </CharString>
        <CharString name="Ntilde">
          252 -43 callgsubr
          145 127 27 122.97999572753906 21 callgsubr
          hintmask 00000000
          hintmask 10011111
          628 1821 rmoveto
          hintmask 10011011
          122.99000549316406 28 callsubr
          hintmask 10011111
          -121 -15.020004272460938 150 -165.99000549316406 hhcurveto
          -107 -118.00999450683594 -81 2 callgsubr
          98 callgsubr
          hvcurveto
          1 callgsubr
          -54 rlineto
          46 38 -23 callgsubr
          62 80.02000427246094 hhcurveto
          hintmask 01011011
          564.9900054931641 -299 rmoveto
          -996 vlineto
          -83 callsubr
          hintmask 10101011
          -83 callgsubr
          hlineto
          hintmask 01011011
          -155 hlineto
          endchar
        </CharString>
        <CharString name="O">
          -74 callgsubr
          hstem
          -54 callsubr
          vstem
          110.97999572753906 768.9799957275391 -106 callgsubr
        </CharString>
        <CharString name="OE">
          756 -99 callsubr
          127.97000122070312 -111.97999572753906 133.97999572753906 586.010009765625 65 callsubr
          538.9999847412109 131 -113 129 hstemhm
          110 169.97999572753906 814 169 hintmask 01110110
          1262.979995727539 133.97999572753906 rmoveto
          586.0099945068359 485 132 -485 539 654 131 -823 vlineto
          hintmask 10101110
          -49 vlineto
          -85 50.02000427246094 -104 18 -89.00999450683594 -3 -402.99000549316406 -13 -294.00999450683594 -257.97999572753906 -8.990005493164062 -503.00999450683594 176 callgsubr
          -454 265.00999450683594 -333.99000549316406 419.99000549316406 -39 callgsubr
          128 -66 callsubr
          95 142 callsubr
          85 57.02000427246094 rrcurveto
          hintmask 01110110
          -75 897 133.97999572753906 -728 vlineto
          hintmask 10101110
          -470 -22 rmoveto
          -339 -174 298 345.00999450683594 455 264 198.99000549316406 268 -40 callsubr
          152 callgsubr
          -35 128 callgsubr
          264 callgsubr
          hvcurveto
          -1106 vlineto
          -77 callgsubr
          -69.97999572753906 -102.02000427246094 91 callsubr
          -129 hhcurveto
          endchar
        </CharString>
        <CharString name="Oacute">
          -74 callgsubr
          122.010009765625 43 hstem
          -54 callsubr
          vstem
          688.9900054931641 -65 callgsubr
          -578 -891 -106 callgsubr
        </CharString>
        <CharString name="Obreve">
          -74 callgsubr
          104 132 hstem
          -54 callsubr
          vstem
          471 1966.979995727539 rmoveto
          -173 -12 126 -152 223.99000549316406 hhcurveto
          212 137 152 173 -11.990005493164062 hvcurveto
          125 callgsubr
          hlineto
          208 callsubr
          -1 -50 callsubr
          -146 -190 hhcurveto
          65 callgsubr
          -25 -31 callgsubr
          50 -2 hvcurveto
          -116.99000549316406 hlineto
          -360.02000427246094 -1198 -106 callgsubr
        </CharString>
        <CharString name="Ocircumflex">
          -74 callgsubr
          101.02000427246094 -72 callsubr
          110.97999572753906 171 1008.010009765625 216 callsubr
          hintmask 11010111
          261 callsubr
          137 callsubr
          hintmask 11100111
          104 -45 163 callsubr
          244.02000427246094 -222.99000549316406 rlineto
          hintmask 11001111
          18 callsubr
          -149.02000427246094 hlineto
          hintmask 11010111
          -276.99000549316406 -298 rlineto
          hintmask 11001111
          -346.00999450683594 -915 -106 callgsubr
        </CharString>
        <CharString name="Odieresis">
          -74 callgsubr
          152 177 callsubr
          hstem
          110.97999572753906 171 175.010009765625 133 callgsubr
          128.00999450683594 -79 callgsubr
          vstem
          261 callsubr
          19 callsubr
          -33 159 callsubr
          -825.0200042724609 -1029 -106 callgsubr
        </CharString>
        <CharString name="Ograve">
          -74 callgsubr
          122.010009765625 43 hstem
          -54 callsubr
          vstem
          856.9900054931641 232 callsubr
          185 callsubr
          -5 callgsubr
          -746 -820 -106 callgsubr
        </CharString>
        <CharString name="Ohungarumlaut">
          -74 callgsubr
          101.02000427246094 43 10 43 191 callgsubr
          hintmask 11011100
          463.99000549316406 1692 rmoveto
          hintmask 11101100
          94.99000549316406 -53 207 callgsubr
          182 callsubr
          hintmask 11011100
          -77 callsubr
          -41.99000549316406 -163.99000549316406 -216 -36 -40 rrcurveto
          466.99000549316406 hmoveto
          hintmask 11101100
          96.02000427246094 -53 88 -23 callgsubr
          125 callsubr
          105 71.99000549316406 102.02000427246094 rlinecurve
          -124 92 callgsubr
          rlineto
          hintmask 11011100
          215 callsubr
          -820 -923.0200042724609 -106 callgsubr
        </CharString>
        <CharString name="Omacron">
          -74 callgsubr
          205.010009765625 124 hstem
          110.97999572753906 171 257.010009765625 543 208 -79 callgsubr
          vstem
          538.9900054931641 1867 56 callgsubr
          -428.00999450683594 -1098.020004272461 -106 callgsubr
        </CharString>
        <CharString name="Oslash">
          -74 callgsubr
          hstem
          -54 callsubr
          vstem
          1095.990005493164 1477.979995727539 -88 callgsubr
        </CharString>
        <CharString name="Oslashacute">
          -74 callgsubr
          122.010009765625 43 hstem
          -54 callsubr
          vstem
          1076.979995727539 35 callsubr
          64 callsubr
          148 callgsubr
          19 -395.02000427246094 -88 callgsubr
        </CharString>
        <CharString name="Otilde">
          -74 callgsubr
          129.010009765625 127 27 122.97999572753906 191 callgsubr
          hintmask 00000000
          hintmask 11111100
          398.99000549316406 250 callgsubr
          66 -54 rlineto
          46 -60 callgsubr
          67.00999450683594 62 80 hhcurveto
          hintmask 11101100
          -18 callsubr
          11 callsubr
          -49 callgsubr
          rlineto
          -45 -45 callsubr
          11 callsubr
          -60 -81 hhcurveto
          hintmask 11111100
          -121 232 callgsubr
          -107 173 callgsubr
          -81 2 callgsubr
          -42 hvcurveto
          hintmask 11101100
          -288.00999450683594 -998.0099945068359 -106 callgsubr
        </CharString>
        <CharString name="P">
          -22 0 43 483.99000549316406 -40 callsubr
          761.9999847412109 159 callgsubr
          649.0099945068359 168.97999572753906 hintmask 00000000
          hintmask 11011100
          -73 callsubr
          1521.990005493164 74 callgsubr
          hintmask 11101100
          215 callgsubr
          hintmask 11011100
          48 callsubr
          hintmask 11101100
          92 callsubr
          hintmask 11011100
          227 callgsubr
        </CharString>
        <CharString name="Q">
          269 -287 138 133.00999450683594 129.99000549316406 1294.979995727539 129 hstem
          110 -79 callgsubr
          1008 171 vstem
          1332 90 callgsubr
          rmoveto
          -161.02000427246094 -128 58 99.97999572753906 -82.97999572753906 hvcurveto
          290 77 202 256 8 421.99000549316406 177 callgsubr
          466 -257 311.00999450683594 -403 -3 -384.99000549316406 -85 callgsubr
          -304 -260.02000427246094 -10 -506 176 callgsubr
          -460 258 -333.99000549316406 420 9.020004272460938 rrcurveto
          257 callsubr
          8 0 1 7 hvcurveto
          -216 158 167 204 callsubr
          206.99000549316406 hhcurveto
          64 callgsubr
          71.99000549316406 17 21.009994506835938 31.009994506835938 hvcurveto
          123 vlineto
          -18 -43 205 callsubr
          -5 -52 hhcurveto
          -1051.009994506836 906.9799957275391 rmoveto
          2 433 229 215 290.97999572753906 2.9900054931640625 320 2 4 callsubr
          -289 -1 -350 -3 -426 -202 -229.99000549316406 -300 -2 -332 -2 -173 298 -66 callsubr
          348 rrcurveto
          endchar
        </CharString>
        <CharString name="R">
          29 callsubr
          -14 callsubr
          639.989990234375 172.99000549316406 hintmask 11101100
          1235.990005493164 -71 callsubr
          -59 callgsubr
          hintmask 11011100
          -76 callgsubr
          hintmask 11101100
          -70 callsubr
          endchar
        </CharString>
        <CharString name="Racute">
          29 callsubr
          137 43 -14 callsubr
          639.989990234375 172.99000549316406 hintmask 11101110
          1041 1873 rmoveto
          -68 callsubr
          91 callsubr
          -36 rlinecurve
          64 callsubr
          -71 124 -14 callgsubr
          262 callsubr
          -1771 -72 callgsubr
        </CharString>
        <CharString name="Rcaron">
          29 callsubr
          144 113 -14 callsubr
          639.989990234375 172.99000549316406 hintmask 11101110
          776.9900054931641 260 callgsubr
          rmoveto
          60 callgsubr
          270.99000549316406 -92 44 -248 -202 -244 202 259 callgsubr
          -46 268 245 callsubr
          459 -1565 -72 callgsubr
        </CharString>
        <CharString name="Rcommaaccent">
          58 -11 callsubr
          37 callgsubr
          -14 callsubr
          286 -31 callgsubr
          210.99998474121094 172.99000549316406 hintmask 11110111
          1235.990005493164 -71 callsubr
          -59 callgsubr
          hintmask 11101111
          -76 callgsubr
          hintmask 11110111
          -70 callsubr
          334.00999450683594 -879.9799957275391 -2 callgsubr
        </CharString>
        <CharString name="S">
          -9 callsubr
          hstem
          54 callgsubr
          vstem
          3 callsubr
          73.99000549316406 -104 callsubr
        </CharString>
        <CharString name="Sacute">
          -9 callsubr
          122.02000427246094 43 hstem
          54 callgsubr
          vstem
          499 1659.990005493164 rmoveto
          71.99000549316406 -71 124 -42 callsubr
          185 callsubr
          -36 rlinecurve
          -363.00999450683594 -1586 -104 callsubr
        </CharString>
        <CharString name="Scaron">
          -9 callsubr
          129.02000427246094 113 hstem
          54 callgsubr
          vstem
          276.99000549316406 251 callsubr
          186 callgsubr
          hlineto
          146 callsubr
          rlineto
          -141 -1862 -104 callsubr
        </CharString>
        <CharString name="Scedilla">
          -147 -463.99000549316406 -44 callgsubr
          329.00999450683594 134.97999572753906 -131.989990234375 65 callsubr
          1285.989990234375 -53 callsubr
          252 callsubr
          244.00001525878906 5 callgsubr
          231.99998474121094 251 callgsubr
          hintmask 10111110
          1067.990005493164 384.97999572753906 rmoveto
          57 callsubr
          vhcurveto
          -216 104.02000427246094 -121 70.99000549316406 171 vvcurveto
          152 -1 167 69 162 hhcurveto
          157 95.00999450683594 -34 -48 74 hvcurveto
          35 133 rlineto
          36 -54 -114 46 -192 hhcurveto
          -231 -260.00999450683594 2 callgsubr
          -280 -225 200 -140.99000549316406 198 -90.00999450683594 hvcurveto
          213 -97 151 -69 -174 vvcurveto
          hintmask 11011110
          -168.02000427246094 -133.97999572753906 -30 callsubr
          52 -35 161 -48.97999572753906 186 -6 rlinecurve
          11 -37 257 callsubr
          -51 -6.9900054931640625 -76 rrcurveto
          -118 -6 188 callsubr
          -47 -80 hhcurveto
          -36.99000549316406 -36 70 callsubr
          hintmask 10111110
          5 91 -11 75 -24.990005493164062 53 rrcurveto
          256 19.979995727539062 173 132.02000427246094 245.99000549316406 vvcurveto
          endchar
        </CharString>
        <CharString name="Scircumflex">
          -9 callsubr
          101.02999877929688 -72 callsubr
          54 callgsubr
          hintmask 00000000
          hintmask 11010111
          265.99000549316406 137 callsubr
          hintmask 11100111
          104 -45 207 callsubr
          -3 callgsubr
          hintmask 11001111
          253 callgsubr
          -149 hlineto
          hintmask 11010111
          -277 -298 rlineto
          hintmask 11001111
          -130 -1610 -104 callsubr
        </CharString>
        <CharString name="Scommaaccent">
          -140 -559.9900054931641 43 501 134.97999572753906 1285.990005493164 -53 callsubr
          hstem
          143.99000549316406 161.99000549316406 247.99998474121094 143 209.010009765625 -24 callgsubr
          vstem
          139.97999572753906 73.99000549316406 rmoveto
          -37 55 177 -52.97999572753906 199.99000549316406 hhcurveto
          294.00999450683594 -73 callsubr
          132.97000122070312 268 57 callsubr
          hvcurveto
          -216 104.02000427246094 -121 70.99000549316406 171 vvcurveto
          152 -1 167 69 162.02000427246094 hhcurveto
          157 94.99000549316406 -34 -48 64 callgsubr
          hvcurveto
          34.970001220703125 133 rlineto
          36 -53.99000549316406 125 callgsubr
          46 -192 hhcurveto
          -231 -260 2 callgsubr
          -280 -225 199.99000549316406 -140.99000549316406 198 -90.00999450683594 hvcurveto
          213.02000427246094 -97 151 -69 -174 vvcurveto
          -168.02000427246094 -134 -30 callsubr
          rlineto
          361 -601.9799957275391 rmoveto
          58 -32.02000427246094 rlineto
          55 -61 callgsubr
          34 209 callgsubr
          203 callsubr
          -65 -77 callsubr
          -13 callgsubr
          endchar
        </CharString>
        <CharString name="T">
          -22 0 195 callsubr
          hstem
          139 callsubr
          171 vstem
          139 callsubr
          1390.979995727539 -15 callgsubr
          endchar
        </CharString>
        <CharString name="Tbar">
          -22 0 43 622.9799957275391 112 613 131 hstem
          139 callsubr
          171 vstem
          1221.979995727539 1390.979995727539 rmoveto
          131 -1159.990005493164 -131 490.99000549316406 -612.9900054931641 -298.99000549316406 -112 298.99000549316406 -665.9900054931641 171 665.9900054931641 301 112 -301 612.9900054931641 498 vlineto
          endchar
        </CharString>
        <CharString name="Tcaron">
          -22 0 195 callsubr
          145.010009765625 113 hstem
          139 callsubr
          171 vstem
          292.97999572753906 -69 callgsubr
          -244.02000427246094 202 -97 -46 rlineto
          260 -545.0099945068359 -15 callgsubr
          endchar
        </CharString>
        <CharString name="Thorn">
          -32 0 291.97999572753906 956 274 78 callgsubr
          374.99000549316406 hmoveto
          -63 callsubr
          -169 -75 callsubr
          169 vlineto
          -13 304.97999572753906 rmoveto
          126 vlineto
          -10 69 220 callsubr
          -6 -23 callgsubr
          hhcurveto
          245 171 90.00999450683594 285 234 -136 -50 callgsubr
          -267 -5 hvcurveto
          -77 -2 -111.99000549316406 -10 98 callsubr
          -12 96 callsubr
          125.00999450683594 rcurveline
          -66 callsubr
          95 186 callgsubr
          19 118 callsubr
          hhcurveto
          320 197 -139 -317.00999450683594 -331 -215 -169 -353.00999450683594 -104.97999572753906 -108.02000427246094 11 2 -42 hvcurveto
          endchar
        </CharString>
        <CharString name="U">
          -91 callsubr
          -42 callgsubr
          hintmask 10111000
          -79 callgsubr
          643.9900054931641 -95 callsubr
          hintmask 11011000
          -92 callsubr
          hintmask 10111000
          50 callsubr
        </CharString>
        <CharString name="Uacute">
          -91 callsubr
          137 43 -42 callgsubr
          hintmask 10111100
          628.9799957275391 233 callsubr
          238 callsubr
          -42 callsubr
          91 callsubr
          -36 rlinecurve
          -458 -1016 -95 callsubr
          hintmask 11011100
          -92 callsubr
          hintmask 10111100
          50 callsubr
        </CharString>
        <CharString name="Ubreve">
          -91 callsubr
          118.989990234375 132 -42 callgsubr
          hintmask 10111100
          410.99000549316406 68 callsubr
          224 hhcurveto
          110 callgsubr
          -190 14 callsubr
          -240 -1322.990005493164 -95 callsubr
          hintmask 11011100
          -92 callsubr
          hintmask 10111100
          50 callsubr
        </CharString>
        <CharString name="Ucircumflex">
          -91 callsubr
          263 callsubr
          -72 callsubr
          -79 callgsubr
          -40 callgsubr
          796.9999847412109 167.99000549316406 hintmask 0000000000000000
          hintmask 1010101110000000
          395.97999572753906 137 callsubr
          hintmask 1011001110000000
          104.02000427246094 -45 248 -3 callgsubr
          hintmask 1010011110000000
          18 callsubr
          -149 hlineto
          hintmask 1010101110000000
          217 callgsubr
          rlineto
          hintmask 1100011110000000
          -225 -1040 -95 callsubr
          -92 callsubr
          hintmask 1010011110000000
          1 839 rlineto
          -169 hlineto
          hintmask 1100011110000000
          -879 vlineto
          endchar
        </CharString>
        <CharString name="Udieresis">
          -91 callsubr
          166.989990234375 250 callsubr
          -79 callgsubr
          -40 callgsubr
          56.99998474121094 225 254 189 callgsubr
          35.00999450683594 -40 callgsubr
          hintmask 00000000
          hintmask 10111111
          395.97999572753906 1797.979995727539 rmoveto
          -45 callgsubr
          57.02000427246094 264 callgsubr
          56 46 77 65 -33 -87 callsubr
          -70.99000549316406 98 callsubr
          -6 callgsubr
          152 callsubr
          43.99000549316406 84 callgsubr
          -60 115 callsubr
          hintmask 11011001
          -704 -1153.990005493164 -95 callsubr
          -92 callsubr
          hintmask 10111001
          1 839 rlineto
          -169 hlineto
          hintmask 11011001
          -879 vlineto
          endchar
        </CharString>
        <CharString name="Ugrave">
          -91 callsubr
          137 43 -42 callgsubr
          hintmask 10111100
          797 158 callgsubr
          70.99000549316406 71 -45 36 -262 234 -40 181 callgsubr
          -626.0099945068359 -944.9900054931641 -95 callsubr
          hintmask 11011100
          -92 callsubr
          hintmask 10111100
          50 callsubr
        </CharString>
        <CharString name="Uhungarumlaut">
          -91 callsubr
          263 callsubr
          43 10 43 -42 callgsubr
          hintmask 10101110
          402.97999572753906 1692 rmoveto
          hintmask 10110110
          95.00999450683594 -53 118 callgsubr
          182 callsubr
          hintmask 10101110
          201 callgsubr
          467.00999450683594 hmoveto
          hintmask 10110110
          101 callgsubr
          hintmask 10101110
          215 callsubr
          -699 -1048 -95 callsubr
          hintmask 11001110
          -92 callsubr
          hintmask 10101110
          50 callsubr
        </CharString>
        <CharString name="Umacron">
          -91 callsubr
          220 124 hstemhm
          -79 callgsubr
          -40 callgsubr
          139.99998474121094 543 114 -40 callgsubr
          hintmask 10111110
          478.99000549316406 1867 56 callgsubr
          -308 -1223 -95 callsubr
          hintmask 11011110
          -92 callsubr
          hintmask 10111110
          50 callsubr
        </CharString>
        <CharString name="Uogonek">
          173 171 callgsubr
          132.97999572753906 1364.0400085449219 -57 callgsubr
          hstemhm
          -79 callgsubr
          -40 callgsubr
          248.99998474121094 165 383 -40 callgsubr
          hintmask 00000000
          hintmask 11101010
          1135.979995727539 122 callgsubr
          -837 vlineto
          -437 -146 -131 -240.99000549316406 -257 -153 125.00999450683594 442 vhcurveto
          hintmask 11011110
          1 839 rlineto
          -169 -879 hlineto
          -428.00999450683594 -1 172.02000427246094 -231.97000122070312 402 hhcurveto
          16 116 callsubr
          0 1 15.020004272460938 hvcurveto
          -101.00999450683594 239 callgsubr
          -103 -120 -66 callsubr
          141 callgsubr
          rrcurveto
          -136 1 104 -70 137 hhcurveto
          126 callsubr
          224 callgsubr
          21 41 53.99000549316406 hvcurveto
          152 callgsubr
          vlineto
          -52.99000549316406 -25 -58 -15.009994506835938 -52.02000427246094 -62 callgsubr
          rrcurveto
          205 callsubr
          -65 141 callsubr
          93 -1 hvcurveto
          -2 -4 callgsubr
          99 112 -4 callgsubr
          77.99000549316406 rrcurveto
          239 70.99000549316406 -44 callgsubr
          212 351 vvcurveto
          hintmask 11101010
          877 -168 vlineto
          endchar
        </CharString>
        <CharString name="Uring">
          173 -99 callsubr
          132.97999572753906 1342.000015258789 19 callgsubr
          -74.95001220703125 -57 callgsubr
          354 95 hstemhm
          -79 callgsubr
          -40 callgsubr
          98.99998474121094 119 382 118 79 -40 callgsubr
          hintmask 1001111110000000
          437.99000549316406 1721 rmoveto
          hintmask 1100111110000000
          -162 -85 callgsubr
          -44 callgsubr
          -100 190.02000427246094 hhcurveto
          163.99000549316406 147 161 callsubr
          hintmask 1001111110000000
          148 callsubr
          -3 hvcurveto
          hintmask 1100111110000000
          501 -3 rmoveto
          173 callgsubr
          -86 91 callsubr
          143 callgsubr
          1 vhcurveto
          -32 callsubr
          112 callsubr
          -768 -1074 -95 callsubr
          hintmask 1010111110000000
          -92 callsubr
          hintmask 1001111110000000
          1 839 rlineto
          -169 hlineto
          hintmask 1100111110000000
          -879 vlineto
          endchar
        </CharString>
        <CharString name="Utilde">
          -91 callsubr
          144 127 27 122.97999572753906 -42 callgsubr
          hintmask 00000000
          hintmask 10111110
          337.97999572753906 250 callgsubr
          66 -54 rlineto
          46 38 -23 callgsubr
          62 80 hhcurveto
          hintmask 10110110
          123 28 callsubr
          hintmask 10111110
          -121.02000427246094 265 callgsubr
          -107 -118 -81 2 callgsubr
          -42 hvcurveto
          hintmask 11010110
          -167 -1123 -95 callsubr
          -92 callsubr
          hintmask 10110110
          1 839 rlineto
          -169 hlineto
          hintmask 11010110
          -879 vlineto
          endchar
        </CharString>
        <CharString name="V">
          30 106 callgsubr
          1454.020004272461 -103 callgsubr
          hstem
          141 callsubr
          1270 vstem
          141 callsubr
          122 callgsubr
          574.0099945068359 -1537.979995727539 rlineto
          221 callsubr
          hlineto
          554 1537.979995727539 rlineto
          -178.02000427246094 hlineto
          -369.99000549316406 -1085.009994506836 -76 -244 -76 244 -391 1085.009994506836 rlineto
          -179 hlineto
          endchar
        </CharString>
        <CharString name="W">
          -19 callgsubr
          216 callgsubr
          hintmask 10110000
          1706.990005493164 1521.990005493164 170 callsubr
          hintmask 01110000
          -98 callsubr
          hintmask 10110000
          -171 hlineto
          endchar
        </CharString>
        <CharString name="Wacute">
          -19 callgsubr
          138 43 216 callgsubr
          hintmask 10111000
          1293.990005493164 35 callsubr
          71.99000549316406 -71 124 -14 callgsubr
          413 -351 170 callsubr
          hintmask 01111000
          -98 callsubr
          hintmask 10111000
          -171 hlineto
          endchar
        </CharString>
        <CharString name="Wcircumflex">
          -19 callgsubr
          117.00999450683594 43 4 43 132.97999572753906 120.00999450683594 216 callgsubr
          hintmask 10101110
          954.9799957275391 196 callgsubr
          hintmask 10110110
          244 -222.99000549316406 rlineto
          hintmask 10101110
          110.02000427246094 47 -280 296 247 callsubr
          hlineto
          hintmask 10110110
          202 callgsubr
          hintmask 10101110
          207 callsubr
          222.99000549316406 rlineto
          752 -339.99000549316406 170 callsubr
          hintmask 01101110
          -98 callsubr
          hintmask 10101110
          -171 hlineto
          endchar
        </CharString>
        <CharString name="Wdieresis">
          -19 callgsubr
          167.989990234375 250 callsubr
          602.9900054931641 133 callgsubr
          hintmask 10111100
          706.9900054931641 255 callsubr
          56 46 77 65 -33 -87 callsubr
          -71 -61.99000549316406 -59 46 callsubr
          -45 callgsubr
          57 hvcurveto
          479.99000549316406 hmoveto
          64 57.02000427246094 46 77 65 -33.02000427246094 166 callsubr
          -69.97999572753906 97 callgsubr
          -38.02000427246094 58 hvcurveto
          520.0099945068359 -168 170 callsubr
          hintmask 01111100
          -98 callsubr
          hintmask 10111100
          -171 hlineto
          endchar
        </CharString>
        <CharString name="Wgrave">
          -19 callgsubr
          138 43 216 callgsubr
          hintmask 10111000
          1003.9900054931641 232 callsubr
          91 callsubr
          36 -261.97999572753906 234 -40.02000427246094 181 callgsubr
          703 -13 callsubr
          170 callsubr
          hintmask 01111000
          -98 callsubr
          hintmask 10111000
          -171 hlineto
          endchar
        </CharString>
        <CharString name="X">
          29 0 43 1438.0299987792969 -57 callgsubr
          hstemhm
          72.99000549316406 1183.979995727539 hintmask 10110000
          762.9799957275391 757.9900054931641 rmoveto
          hintmask 11010000
          480.00999450683594 764 rlineto
          -183 hlineto
          -282.99000549316406 -464 -104 -176 143 callgsubr
          176 rlineto
          hintmask 10110000
          -295 465 -191 -1 484 -740 -490 -781.9900054931641 rlineto
          183 hlineto
          308.97999572753906 502.99000549316406 91.00999450683594 152 94 -152 314 -502.99000549316406 rlineto
          192.99000549316406 hlineto
          -494 757.9900054931641 rlineto
          endchar
        </CharString>
        <CharString name="Y">
          -52 -81 callgsubr
          hstem
          217 callsubr
          vstem
          1218.990005493164 1521.990005493164 -84 callsubr
        </CharString>
        <CharString name="Yacute">
          -52 -81 callgsubr
          138 43 hstem
          217 callsubr
          vstem
          984.9900054931641 35 callsubr
          72 148 callgsubr
          234 -351 -84 callsubr
        </CharString>
        <CharString name="Ycircumflex">
          -52 -81 callgsubr
          117.00999450683594 43 4 43 132.97999572753906 120.00999450683594 hstemhm
          217 callsubr
          hintmask 11011100
          645.9799957275391 196 callgsubr
          hintmask 11101100
          244.02000427246094 -222.99000549316406 rlineto
          hintmask 11011100
          18 callsubr
          -149 hlineto
          hintmask 11101100
          202 callgsubr
          hintmask 11011100
          163 callsubr
          rlineto
          573.0099945068359 -339.99000549316406 -84 callsubr
        </CharString>
        <CharString name="Ydieresis">
          -52 -81 callgsubr
          167.989990234375 250 callsubr
          293.99000549316406 124 callsubr
          28.999984741210938 172 53.010009765625 189 callgsubr
          hintmask 00000000
          hintmask 11111100
          397.99000549316406 255 callsubr
          -49 callgsubr
          230 callsubr
          -71 -62 87 callgsubr
          3 callgsubr
          91 callgsubr
          -50 -74.00999450683594 77 callsubr
          hvcurveto
          341 -168 rmoveto
          -179 hlineto
          -359.00999450683594 -701.0099945068359 -44 90 callsubr
          -51 -22 callgsubr
          -374 701.0099945068359 rlineto
          -181 hlineto
          hintmask 11101000
          517 -937 rlineto
          -584.9900054931641 172 587 vlineto
          hintmask 11111100
          499 935 rlineto
          endchar
        </CharString>
        <CharString name="Ygrave">
          -52 -81 callgsubr
          138 43 hstem
          217 callsubr
          vstem
          694.9900054931641 232 callsubr
          -45 237 callsubr
          -40.02000427246094 45 rlinecurve
          -110.97999572753906 141 callgsubr
          93.99000549316406 -99 182 -129 111 -56 rlinecurve
          524 -13 callsubr
          -84 callsubr
        </CharString>
        <CharString name="Z">
          35 callgsubr
          235 callsubr
          hintmask 11010000
          117 callgsubr
          1 callgsubr
          -29 callgsubr
          hintmask 10110000
          130 callgsubr
          hintmask 11010000
          -34 callsubr
          endchar
        </CharString>
        <CharString name="Zacute">
          35 callgsubr
          138 43 235 callsubr
          hintmask 11011000
          566.9900054931641 -65 callgsubr
          -461 -1594 -29 callgsubr
          hintmask 10111000
          130 callgsubr
          hintmask 11011000
          -34 callsubr
          endchar
        </CharString>
        <CharString name="Zcaron">
          35 callgsubr
          145 113 235 callsubr
          hintmask 11011000
          344.99000549316406 -69 callgsubr
          -244 202 259 callgsubr
          -46 rlineto
          -239 -1870 -29 callgsubr
          hintmask 10111000
          130 callgsubr
          hintmask 11011000
          -34 callsubr
          endchar
        </CharString>
        <CharString name="Zdotaccent">
          35 callgsubr
          169 -62 callsubr
          572.9799957275391 227 hintmask 11001100
          572.9900054931641 -54 callgsubr
          hintmask 11010100
          114 callsubr
          hintmask 11001100
          -8 callgsubr
          hvcurveto
          -467 -1735 -29 callgsubr
          hintmask 10101100
          130 callgsubr
          hintmask 11001100
          -34 callsubr
          endchar
        </CharString>
        <CharString name="a">
          -90 callgsubr
          hstem
          28 callgsubr
          vstem
          577.9900054931641 1157 -107 callgsubr
        </CharString>
        <CharString name="aacute">
          -90 callgsubr
          521.0000152587891 43 hstem
          28 callgsubr
          vstem
          918 1677.990005493164 248 callgsubr
          103 -103 -66 callgsubr
          88 callsubr
          101 rlinecurve
          -340.00999450683594 -520.9900054931641 -107 callgsubr
        </CharString>
        <CharString name="abreve">
          -90 callgsubr
          -28 callgsubr
          130 194 callsubr
          -31 140 callgsubr
          439.00999450683594 -24 callgsubr
          -160.99000549316406 -22 callgsubr
          hintmask 00000000
          hintmask 11110101
          581.9799957275391 180 callsubr
          90 callsubr
          hlineto
          108 callgsubr
          -31.009994506835938 -180 -192 -195.99000549316406 -24 -12 callgsubr
          52 -1 vhcurveto
          173 callgsubr
          hlineto
          246 callgsubr
          128.99000549316406 -181 221 hhcurveto
          hintmask 11111010
          -4 107 callgsubr
          -107 callgsubr
        </CharString>
        <CharString name="acircumflex">
          -90 callgsubr
          408.00001525878906 127 hstem
          28 callgsubr
          vstem
          581.9799957275391 1565 rmoveto
          263 -16 callsubr
          113 callsubr
          rlineto
          -4 -408 -107 callgsubr
        </CharString>
        <CharString name="acute">
          -744 1677.990005493164 43 hstem
          59 callsubr
          261 callsubr
          vstem
          59 callsubr
          1382.990005493164 rmoveto
          86 -86 callsubr
          68 101 rlinecurve
          71 callgsubr
          103 -103 144 callsubr
          endchar
        </CharString>
        <CharString name="acute.cap">
          -737 1659.990005493164 43 hstem
          -49 callgsubr
          457.99000549316406 vstem
          -49 callgsubr
          -65 callgsubr
          endchar
        </CharString>
        <CharString name="adieresis">
          -90 callgsubr
          251.010009765625 124 callsubr
          194 callsubr
          -27 217 234.989990234375 216 -114.989990234375 -24 callgsubr
          hintmask 00000000
          hintmask 11110110
          -10 callsubr
          hintmask 11111001
          -221 -251 -107 callgsubr
        </CharString>
        <CharString name="ae">
          50 callgsubr
          146 callgsubr
          hintmask 11001111
          1712.990005493164 139 callsubr
          27 callgsubr
          hintmask 10110111
          -79 callsubr
          hintmask 11001111
          16 callgsubr
          hintmask 10101111
          33 callgsubr
          hintmask 11001111
          267 callsubr
        </CharString>
        <CharString name="aeacute">
          50 callgsubr
          249 callgsubr
          146 callgsubr
          hintmask 1100111110000000
          1256 1677.990005493164 248 callgsubr
          103 175 callgsubr
          -66 callgsubr
          88 callsubr
          101 rlinecurve
          261 callsubr
          -1125 27 callgsubr
          hintmask 1011011110000000
          -79 callsubr
          hintmask 1100111110000000
          16 callgsubr
          hintmask 1010111110000000
          33 callgsubr
          hintmask 1100111110000000
          267 callsubr
        </CharString>
        <CharString name="agrave">
          -90 callgsubr
          521.0000152587891 43 hstem
          28 callgsubr
          vstem
          32 callgsubr
          -25 -157.97999572753906 -107 callgsubr
        </CharString>
        <CharString name="amacron">
          -90 callgsubr
          295.00001525878906 124 194 callsubr
          37 543 -54 -24 callgsubr
          hintmask 00000000
          hintmask 11111100
          855 1576 rmoveto
          -543 -124 543 124 hlineto
          hintmask 11111010
          -277.00999450683594 -419 -107 callgsubr
        </CharString>
        <CharString name="ampersand">
          231 -99 callsubr
          121.97000122070312 1321 119 hstemhm
          186 callgsubr
          97 callsubr
          -7.0000152587890625 155 477.010009765625 -31 callgsubr
          137.99998474121094 144.00999450683594 hintmask 11101100
          1203 157 rmoveto
          -71 callsubr
          86 50 80 callgsubr
          151 vvcurveto
          100 -23 80 -12 34 vhcurveto
          -147 hlineto
          12 -29 175 callsubr
          -86 -99 vvcurveto
          -123 -40 205 callsubr
          -69 127 callsubr
          vhcurveto
          -110 236 callsubr
          -206 262 -87 -44 callgsubr
          rrcurveto
          217 100 157 -61 callsubr
          242 vvcurveto
          150 callsubr
          126 callgsubr
          160 -235 vhcurveto
          hintmask 11011100
          -243 -160 -131 -217.99000549316406 -158 -4 callgsubr
          -137 89.99000549316406 -116 hvcurveto
          hintmask 11101100
          -179 174 callsubr
          -157 -44 callsubr
          -203 vvcurveto
          -261 243 -140.97999572753906 361 115 128 36.97999572753906 47 152 callgsubr
          vhcurveto
          -56 76 69 -27.970001220703125 94.99000549316406 hhcurveto
          53 32 7 7.9900054931640625 28 hvcurveto
          88 vlineto
          188 callgsubr
          -1 -68.02000427246094 116 callsubr
          174 callsubr
          56 rrcurveto
          hintmask 11011100
          -506 1269.990005493164 rmoveto
          59 callgsubr
          142 callgsubr
          -110 -105 -192 -129 11 callgsubr
          -175 223 callsubr
          hvcurveto
          -103 139 -70 75 146 vvcurveto
          157 71 callsubr
          70 136 vhcurveto
          46 -1321 rmoveto
          hintmask 11101100
          -310 -128 133 151 143 118 89 189 callsubr
          264 callgsubr
          hvcurveto
          66 callgsubr
          -145.99000549316406 187 -242 129 -139 rrcurveto
          hintmask 11011100
          -34 -78 -79 -20.009994506835938 -83 hhcurveto
          endchar
        </CharString>
        <CharString name="aogonek">
          -156 171 callgsubr
          -40 callsubr
          -111 43 533.9900054931641 -50 callgsubr
          347.99998474121094 127.00999450683594 194 callsubr
          302.989990234375 164 59.010009765625 -24 callgsubr
          hintmask 00000000
          hintmask 11011111
          891.9900054931641 246 callsubr
          187 callgsubr
          -65 175 callsubr
          93 -1 hvcurveto
          -1 118 callsubr
          125.00999450683594 89.99000549316406 87 55 rrcurveto
          13.990005493164062 hlineto
          hintmask 11011101
          165 callsubr
          vlineto
          286 -157 64 -232 -20 callsubr
          vhcurveto
          41 -110 rlineto
          43 60 158.99000549316406 53.99000549316406 116.02000427246094 hhcurveto
          169.99000549316406 -4 callgsubr
          -50 callsubr
          -184 hvcurveto
          -132.02000427246094 vlineto
          -44 callsubr
          -192 -17 -50 -134 hvcurveto
          -158.99000549316406 -59 -87 -105 -150 vvcurveto
          -198 145 -118.97999572753906 202 162 130 65.97999572753906 -49 callgsubr
          62 vhcurveto
          hintmask 10111101
          98 callgsubr
          vlineto
          -35 7 -20 13 -11 vhcurveto
          hintmask 11011111
          -113.00999450683594 -57 -23 callsubr
          -120 -66 callsubr
          -133 rrcurveto
          -136 108.00999450683594 -64 133 126 callsubr
          -4 callgsubr
          21 41 54 vhcurveto
          152 callgsubr
          vlineto
          -53 -77 callsubr
          188 callsubr
          -14 -51 -62 callgsubr
          rrcurveto
          -385.99000549316406 507.97999572753906 rmoveto
          hintmask 11011101
          -164 -67.02000427246094 85 120.00999450683594 100.99000549316406 59 64 114.02000427246094 43 hvcurveto
          40 19 callgsubr
          174 13 82 hhcurveto
          -367 vlineto
          hintmask 11011111
          -28 -77 callsubr
          -125.99000549316406 -71 -143 hhcurveto
          endchar
        </CharString>
        <CharString name="approxequal">
          125 306.99000549316406 -31 callgsubr
          29.999984741210938 142 141 143 30.010009765625 221 callsubr
          hstemhm
          221 callgsubr
          993.0099945068359 hintmask 01011000
          221 callgsubr
          240 callsubr
          rmoveto
          88 -69 rlineto
          65 46 65 61 220 callsubr
          hhcurveto
          hintmask 01111000
          156 34 -173.02000427246094 49 callgsubr
          -65.99000549316406 120 callsubr
          -121 -78 -34.02000427246094 hvcurveto
          -455.99000549316406 vmoveto
          88 -69 rlineto
          64.97999572753906 46 65 61 220 callsubr
          hhcurveto
          hintmask 11011000
          156 34 -172.99000549316406 49 callgsubr
          -66.00999450683594 120 callsubr
          -121.02000427246094 174 callsubr
          -34.02000427246094 hvcurveto
          endchar
        </CharString>
        <CharString name="aring">
          -90 callgsubr
          175.00001525878906 19 callgsubr
          333.989990234375 95 194 callsubr
          -2 -44 callgsubr
          381.99998474121094 118 -90.989990234375 -24 callgsubr
          hintmask 1111101010000000
          578.9900054931641 1332 rmoveto
          hintmask 1111101100000000
          164 147 126 callsubr
          184.02000427246094 -66 callsubr
          hvcurveto
          89 callgsubr
          1 71 callgsubr
          94 -189 133 callsubr
          -85 callgsubr
          hvcurveto
          hintmask 1111101010000000
          -162 -3 118 callsubr
          11 callgsubr
          190 hhcurveto
          -187 268.97999572753906 rmoveto
          263 callgsubr
          1 19 callgsubr
          260 callsubr
          93 hhcurveto
          hintmask 1111101100000000
          191 callsubr
          12 callgsubr
          vhcurveto
          hintmask 1111101010000000
          -44 callsubr
          2 -70 68 1 -71 callsubr
          rrcurveto
          186 -443.99000549316406 rmoveto
          -20 callsubr
          hvcurveto
          41 -110 rlineto
          43 60 158.99000549316406 53.99000549316406 116.02000427246094 hhcurveto
          169.99000549316406 -4 callgsubr
          -50 callsubr
          -184 hvcurveto
          -132.02000427246094 vlineto
          -44 callsubr
          -192 -17 -50 -134 hvcurveto
          hintmask 1111110010000000
          -158.99000549316406 -59 -87 -105 -150 vvcurveto
          -198 145 -118.97999572753906 202 162 130 65.97999572753906 -49 callgsubr
          62 vhcurveto
          98 callgsubr
          vlineto
          -75 30 -5 58 vhcurveto
          92 callgsubr
          165 callsubr
          hlineto
          hintmask 1111101010000000
          286 -157 64 -232 vhcurveto
          -82 callsubr
          -1048 rmoveto
          hintmask 1111110010000000
          -164 -67.02000427246094 85 120.00999450683594 100.99000549316406 59 64 114.02000427246094 43 hvcurveto
          40 19 callgsubr
          174 13 82 hhcurveto
          -367 vlineto
          hintmask 1111101010000000
          -28 -77 callsubr
          -125.99000549316406 -71 -143 hhcurveto
          endchar
        </CharString>
        <CharString name="asciicircum">
          62 1347.990005493164 182.99000549316406 -40.96002197265625 198 callgsubr
          188.99000549316406 985 hintmask 01100000
          1174 508.99000549316406 rmoveto
          -417.02000427246094 1022 rlineto
          174 callgsubr
          hlineto
          -414 -1022 rlineto
          161 hlineto
          hintmask 10100000
          331 839 333 -839 rlineto
          hintmask 01100000
          160 hlineto
          endchar
        </CharString>
        <CharString name="asciitilde">
          137 659.9799957275391 -31 callgsubr
          30.009994506835938 142 hstemhm
          221.97999572753906 993.0099945068359 hintmask 01100000
          221.97999572753906 775.9900054931641 rmoveto
          88 -69 rlineto
          65 46 65 220 callgsubr
          220 callsubr
          hhcurveto
          hintmask 11100000
          156 34 -173 49 callgsubr
          -66 -47 -70.99000549316406 -59 -102.00999450683594 hhcurveto
          hintmask 01100000
          -153 -40 172.02000427246094 65 callgsubr
          hhcurveto
          -157 -116 -121 -78.00999450683594 -34.02000427246094 hvcurveto
          endchar
        </CharString>
        <CharString name="asterisk">
          -75 1113.0199890136719 198 callgsubr
          541.9799957275391 134 -127 -53 callsubr
          hintmask 00000000
          hintmask 10100000
          553.9799957275391 928.9900054931641 rmoveto
          -10 -281 146 1 -16 280 -1 6 -77 callsubr
          1 callsubr
          -67 callgsubr
          5 rlinecurve
          133 -104 234.99000549316406 -150 64 callgsubr
          129 -250 128 -157 57 156 61 246.99000549316406 133 -82 callsubr
          238 callsubr
          rlineto
          hintmask 11000000
          -238 -152 -5 206 callsubr
          149 callsubr
          -100.99000549316406 -85 callgsubr
          -3 rlinecurve
          175 callsubr
          165 10 281 rlineto
          -145.99000549316406 hlineto
          13.990005493164062 -283.00999450683594 rlineto
          2 -6 27 174 callgsubr
          206 callsubr
          vvcurveto
          -130.99000549316406 104 -237.02000427246094 151.02000427246094 -70.99000549316406 -126.00999450683594 248 -129.99000549316406 6 -1 148 -54 4 -2 rlinecurve
          -157 91 callgsubr
          -246 -134 73.00999450683594 -125.00999450683594 rlineto
          hintmask 10100000
          236 152 128 110 -25.009994506835938 -167 rlineto
          endchar
        </CharString>
        <CharString name="at">
          917 -464.99000549316406 184 callsubr
          350 135 -131.00999450683594 122 831.989990234375 115 361 112 hstemhm
          223.99000549316406 135 292.989990234375 143 530.010009765625 111.21000671386719 426.7799835205078 136 hintmask 0000000000000000
          hintmask 1011111110000000
          1309 182.99000549316406 rmoveto
          -111 5.9799957275390625 35 -70 93 hhcurveto
          271.02000427246094 285 299 534 451.99000549316406 -305.00999450683594 257 -441 -572 -457 -438.99000549316406 -680.0200042724609 -602.9700012207031 370 -287 480.00999450683594 187 186 -70 callgsubr
          57.02000427246094 85 hvcurveto
          -30 100 rlineto
          -37 -64.99000549316406 -140 204 callsubr
          -208.02000427246094 hhcurveto
          -388 -342 217 574.9900054931641 605 406 386.99000549316406 459 343 296 223 callgsubr
          -488 -383.02000427246094 -200.99000549316406 -301 -181 -53 -2 93 214 28.020004272460938 hvcurveto
          27 203.02000427246094 66 275.99000549316406 35.99000549316406 130 -133 -26 rcurveline
          39 -63 127 callgsubr
          17.990005493164062 -92.02000427246094 hhcurveto
          -379.99000549316406 -167.02000427246094 -355.99000549316406 -280 -6 hvcurveto
          hintmask 1101111110000000
          -299.00999450683594 -6 152 -137.99000549316406 135 hhcurveto
          151 143 201.99000549316406 205 98 hvcurveto
          hintmask 1011111110000000
          -17 -104 -1 -82 2 -36 rrcurveto
          hintmask 1101111110000000
          -343.02000427246094 128 callgsubr
          rmoveto
          -112.99000549316406 -62 127 204 4 hvcurveto
          227 5 135 60 callgsubr
          255 hhcurveto
          71 94 -22 -49 36.99000549316406 hvcurveto
          -244.97999572753906 -45 callsubr
          -242 -507 -146 hhcurveto
          endchar
        </CharString>
        <CharString name="atilde">
          -90 callgsubr
          -73 callsubr
          -33 callgsubr
          28 callgsubr
          hintmask 00000000
          hintmask 11100111
          426.99000549316406 1512 rmoveto
          hintmask 11110011
          81 callgsubr
          -60 -59 -93.99000549316406 hhcurveto
          hintmask 11100111
          -122.02000427246094 -13.990005493164062 148 -168 hhcurveto
          -119 103 callsubr
          242 callgsubr
          -53.99000549316406 rlineto
          -87 callsubr
          -60 callgsubr
          67.00999450683594 60 86 hhcurveto
          hintmask 11101011
          151 -355 -107 callgsubr
        </CharString>
        <CharString name="b">
          -57 -17 1677.979995727539 hstem
          108 callsubr
          219 callgsubr
          108 callsubr
          64 rmoveto
          167 38 callgsubr
          -167 -1596.990005493164 vlineto
          0 vmoveto
          -56 callgsubr
        </CharString>
        <CharString name="backslash">
          180 callgsubr
          216.99000549316406 1599 rmoveto
          -151 hlineto
          571 -1962 rlineto
          150 hlineto
          -570 1962 rlineto
          endchar
        </CharString>
        <CharString name="bar">
          -459 -187 1967 192 callgsubr
          -1967 154 1967 -154 vlineto
          endchar
        </CharString>
        <CharString name="braceleft">
          160 callgsubr
          368.97999572753906 159 vstem
          527.9900054931641 971.9799957275391 rmoveto
          657.0200042724609 295 92 vlineto
          177 callgsubr
          -81 -107.00999450683594 11 -109 hhcurveto
          -123 -34 -45 -152 hvcurveto
          -575 vlineto
          -49 90 callsubr
          -41 -137 -45 vhcurveto
          -110 vlineto
          128 -37 123 -56 -46 vvcurveto
          -583 vlineto
          -151.97999572753906 35 -45 122 109 220 callsubr
          7.9900054931640625 20.009994506835938 86 vhcurveto
          118 callgsubr
          -295 663.9799957275391 vlineto
          29 -12 25.009994506835938 -22 22 vhcurveto
          -34.02000427246094 36 -109 56 -68 28 68 30 107 52 33 142 callsubr
          rrcurveto
          25 21.009994506835938 12 175 callsubr
          33 vvcurveto
          endchar
        </CharString>
        <CharString name="braceright">
          160 callgsubr
          457.99000549316406 158.99000549316406 vstem
          616.9799957275391 968.9900054931641 rmoveto
          575 vlineto
          152 -34 45 -123 -109 11 callgsubr
          -11 -8.990005493164062 -81.02000427246094 vhcurveto
          -92 295.02000427246094 -657.0200042724609 vlineto
          -33 12 -25.990005493164062 24.990005493164062 -21.009994506835938 vhcurveto
          33 -50 callsubr
          -50 callgsubr
          -52 88 callsubr
          -30 -68.02000427246094 -28 -109 -56 -34 -36 rrcurveto
          -22 -22 -12 -25.009994506835938 -29 vvcurveto
          -663.9799957275391 -295.02000427246094 -84.99000549316406 vlineto
          -20.009994506835938 86.02000427246094 -71 callsubr
          -7.9900054931640625 109 hhcurveto
          122 35 45 151.97999572753906 hvcurveto
          583 vlineto
          46 123 56 128 37 vhcurveto
          110 vlineto
          126 callgsubr
          45 125 callgsubr
          41 49 vvcurveto
          endchar
        </CharString>
        <CharString name="bracketleft">
          179 callsubr
          189 callgsubr
          -5 callsubr
          vstem
          226 1543.990005493164 rmoveto
          -1542 vlineto
          -151.97999572753906 28 -41 122 104 117 7 12.990005493164062 138 callsubr
          vhcurveto
          87 vlineto
          -302 2 rlineto
          1708.990005493164 302 89.99000549316406 vlineto
          -24 callsubr
          188 callgsubr
          -117 11 -104 hhcurveto
          -122 -28 -41 -152 hvcurveto
          endchar
        </CharString>
        <CharString name="bracketright">
          179 callsubr
          454.97999572753906 160 vstem
          614.9900054931641 1543.990005493164 rmoveto
          152 -28 41 -122 -104.02000427246094 -116.99000549316406 -11 176 callgsubr
          -91.00999450683594 vhcurveto
          127 callgsubr
          302 -1708.990005493164 vlineto
          -302 -2 rlineto
          -87 vlineto
          -12.990005493164062 91.00999450683594 116.99000549316406 -7 104.02000427246094 hhcurveto
          122 28 41 151.97999572753906 hvcurveto
          1542 vlineto
          endchar
        </CharString>
        <CharString name="breve">
          -526 1334.979995727539 130 hstem
          -70 callgsubr
          118 443.97999572753906 114.00999450683594 vstem
          -70 callgsubr
          1693.979995727539 rmoveto
          102 callsubr
          44 callsubr
          endchar
        </CharString>
        <CharString name="breve.cap">
          -529 1641.979995727539 132 hstem
          48.30999755859375 676.1600036621094 vstem
          -70 callgsubr
          68 callsubr
          224.02000427246094 hhcurveto
          212 189 callsubr
          152 173 -12 hvcurveto
          90 callsubr
          hlineto
          208 callsubr
          -1 -32 -146 -189.99000549316406 hhcurveto
          -194 -24.990005493164062 -31 callgsubr
          50 -2 hvcurveto
          -117 hlineto
          endchar
        </CharString>
        <CharString name="brokenbar">
          -459 -185.99000549316406 1965.990005493164 192 callgsubr
          -834 154 834 -154 vlineto
          -1135 vmoveto
          -830.9900054931641 154 830.9900054931641 -154 vlineto
          endchar
        </CharString>
        <CharString name="bullet">
          -449 547.9799957275391 353.99000549316406 hstem
          254.99000549316406 341.99000549316406 vstem
          255 723.9900054931641 rmoveto
          -95 -5 74 -81 94 hhcurveto
          94 81 81 99 4 hvcurveto
          98.02000427246094 5 -74 75.99000549316406 -94 hhcurveto
          -93 -81 174 callsubr
          -100 -5 hvcurveto
          endchar
        </CharString>
        <CharString name="c">
          15 callsubr
          hstem
          83 callsubr
          vstem
          643.9900054931641 261 callgsubr
          -101 callgsubr
        </CharString>
        <CharString name="cacute">
          15 callsubr
          522 43 hstem
          83 callsubr
          vstem
          494 1382.990005493164 rmoveto
          86 -86 callsubr
          92 callgsubr
          101 rlinecurve
          71 callgsubr
          123 callgsubr
          150 -227 -101 callgsubr
        </CharString>
        <CharString name="caron">
          -477 1300.990005493164 127 218.989990234375 43 -41.989990234375 43 hstemhm
          47.97999572753906 737.0099945068359 hintmask 10110000
          145 247 callgsubr
          202 callsubr
          -43 297 -346.99000549316406 rlineto
          149 hlineto
          hintmask 11010000
          291 345.99000549316406 rlineto
          hintmask 10110000
          140 callsubr
          44 -263 -263 -273.97999572753906 263 rlineto
          endchar
        </CharString>
        <CharString name="caron.cap">
          -539 260 callgsubr
          113 hstem
          -70 callgsubr
          681 vstem
          -70 callgsubr
          -69 callgsubr
          -244 202 -97 -46 rlineto
          endchar
        </CharString>
        <CharString name="caronvertical">
          -996 1036.979995727539 648 hstem
          115 218 callsubr
          106 callsubr
          1062.990005493164 rmoveto
          126 callsubr
          -77 callsubr
          rlineto
          63.02000427246094 149 callgsubr
          56 156 176 vvcurveto
          103 -18 97 -42 38 vhcurveto
          145 callsubr
          -39.02000427246094 -67.02000427246094 -21 -63 vhcurveto
          7 -23 rlineto
          endchar
        </CharString>
        <CharString name="ccaron">
          15 callsubr
          165.989990234375 -11 callgsubr
          83 callsubr
          hintmask 11101100
          343 1711.979995727539 rmoveto
          259 callgsubr
          5 callsubr
          hintmask 11110100
          291 -22 callsubr
          hintmask 11101100
          156 callgsubr
          -263 -263 -273.97999572753906 263 rlineto
          301 -555.9900054931641 -101 callgsubr
        </CharString>
        <CharString name="ccedilla">
          -289 -463.99000549316406 -44 callgsubr
          330.00999450683594 -40 callsubr
          916.9900054931641 129 hstem
          83 callsubr
          269.00999450683594 124 vstem
          947 93 rmoveto
          -35 122 callsubr
          -50 callsubr
          -49 11 callgsubr
          -47 -132.02000427246094 hhcurveto
          65 callgsubr
          -170 157 319 7.9900054931640625 hvcurveto
          298 8 172.02000427246094 143 186.97999572753906 138 callgsubr
          94 -21 -41 56 hvcurveto
          29 132 rlineto
          26.990005493164062 -40 -103 32 -134 hhcurveto
          -348 -191.02000427246094 -258 -345 1 hvcurveto
          -297.97999572753906 151 -230 268 -35.97999572753906 vhcurveto
          12 -39 7 -51.02000427246094 -7 -78.99000549316406 rrcurveto
          230 callgsubr
          -12 -109 rlineto
          -16 23 88 callsubr
          95 callsubr
          5 89.99000549316406 -11 64 callgsubr
          -24 53 132 6 117 260 callsubr
          67.02000427246094 61 rrcurveto
          endchar
        </CharString>
        <CharString name="ccircumflex">
          15 callsubr
          409 127 hstem
          83 callsubr
          vstem
          244.97999572753906 197 callgsubr
          201 callsubr
          274 263 262.97999572753906 -263 173 callsubr
          -37 callsubr
          -149.02000427246094 hlineto
          -297 47 callgsubr
          399.00999450683594 206 callgsubr
          -101 callgsubr
        </CharString>
        <CharString name="cdotaccent">
          15 callsubr
          232 -17 callgsubr
          hstem
          83 callsubr
          233.00999450683594 230 vstem
          500.97999572753906 1501.979995727539 rmoveto
          -82 callsubr
          49 -42 58 13 callsubr
          vhcurveto
          143 -345.99000549316406 -101 callgsubr
        </CharString>
        <CharString name="cedilla">
          -833 -463.99000549316406 -44 callgsubr
          hstem
          292.97999572753906 124 vstem
          59.99000549316406 -327 rmoveto
          222 callgsubr
          23 88 callsubr
          95 callsubr
          6 184 callsubr
          -18 89 -39 50.99000549316406 -34.02000427246094 4 rcurveline
          -64 -4 19 -41 15.009994506835938 -57 176 callgsubr
          -103 rlinecurve
          230 callgsubr
          endchar
        </CharString>
        <CharString name="cent">
          -107 -14 124 916.9900054931641 128 -128 346 hstemhm
          169.97999572753906 161.99000549316406 267 115 -70.97999572753906 114.5 hintmask 11010100
          1011 93 rmoveto
          -35 122 callsubr
          -50 callsubr
          -49 11 callgsubr
          -47 -132.02000427246094 hhcurveto
          65 callgsubr
          -170 157 319 7.9900054931640625 hvcurveto
          298 8 172.02000427246094 143 186.97999572753906 138 callgsubr
          94 -21 -41 56 hvcurveto
          29 132 -35 24 187 callgsubr
          27 -111 7 rlinecurve
          hintmask 10110100
          5 218 rlineto
          125 callgsubr
          hlineto
          hintmask 11010100
          -5.9799957275390625 -220.02000427246094 -305.00999450683594 -50 callsubr
          -166 -246 1 -322 rlinecurve
          hintmask 11011000
          -302.97999572753906 156 -233 275 -30 vhcurveto
          -4 -203 rlineto
          115 hlineto
          4 202 rlineto
          hintmask 11010100
          123 -24 callsubr
          109.02000427246094 39.970001220703125 63 139 callgsubr
          rrcurveto
          endchar
        </CharString>
        <CharString name="circumflex">
          -468 1564.990005493164 127 hstem
          47.97999572753906 737.0099945068359 vstem
          47.97999572753906 197 callgsubr
          113 callsubr
          263 -16 callsubr
          rlineto
          endchar
        </CharString>
        <CharString name="circumflex.cap">
          -497 1639 -72 callsubr
          -70 callgsubr
          706 hintmask 00000000
          hintmask 01011000
          -70 callgsubr
          137 callsubr
          hintmask 10011000
          104 -45 248 -3 callgsubr
          hintmask 00111000
          18 callsubr
          -149 hlineto
          hintmask 01011000
          -277 -298 rlineto
          endchar
        </CharString>
        <CharString name="colon">
          -700 106 callgsubr
          -43 60 callgsubr
          558.9900054931641 103 callgsubr
          hintmask 10110000
          8 callgsubr
          -823.9900054931641 vmoveto
          -6 callsubr
          hintmask 01110000
          68 -1 -45 callsubr
          119 callsubr
          -72 hhcurveto
          hintmask 10110000
          -64 -59 83 callgsubr
          1 hvcurveto
          endchar
        </CharString>
        <CharString name="colonmonetary">
          20 -8 callsubr
          -130.989990234375 135 1277.990005493164 137.99000549316406 -51.96002197265625 198 callgsubr
          -50 callgsubr
          -40 callgsubr
          235.00999450683594 88.99000549316406 31.999984741210938 90.5 55.510009765625 138 callsubr
          32.49998474121094 138 callsubr
          hintmask 1010110100000000
          -50 callgsubr
          753.9900054931641 rmoveto
          -351.00999450683594 156 -263 260.02000427246094 -105.99000549316406 vhcurveto
          -77 callsubr
          -387.99000549316406 rlineto
          90.00999450683594 hlineto
          23.979995727539062 359.97999572753906 55 -13.990005493164062 60 -6.9900054931640625 106 callsubr
          -1 rlinecurve
          -22 -338 rlineto
          91 hlineto
          22 341 rlineto
          hintmask 1010110110000000
          159 11 82 40 79 26.009994506835938 rrcurveto
          hintmask 0101110110000000
          40 callgsubr
          -46 -30 -114.02000427246094 -43 90 callgsubr
          -12.990005493164062 rlinecurve
          126 callsubr
          1267 236 callsubr
          -17 -49 callgsubr
          -31.009994506835938 33 -11 rlinecurve
          24 150 -63 callgsubr
          -24 callsubr
          127 callsubr
          23.990005493164062 -111.99000549316406 14 rlinecurve
          18.990005493164062 288.00999450683594 rlineto
          -91 hlineto
          hintmask 1010111110000000
          -19 -279 rlineto
          0.9799957275390625 -27 -29 1 -32.02000427246094 hhcurveto
          -30.990005493164062 -30 -67 callgsubr
          206 callsubr
          -30 hvcurveto
          19 283.00999450683594 rlineto
          -90.00999450683594 hlineto
          -19.990005493164062 -300.00999450683594 rlineto
          hintmask 1010110100000000
          -295.00999450683594 -76 -219 -263.99000549316406 -421 vvcurveto
          690.0099945068359 -636 rmoveto
          -64 -59 11 20.009994506835938 -54 hvcurveto
          83 1241 rlineto
          257 callsubr
          35 35.99000549316406 3 38 hhcurveto
          25 23 -1 -1 22 hvcurveto
          -85 -1280 rlineto
          -186.02000427246094 1246 rmoveto
          174 callsubr
          -1171 rlineto
          -166 106 -92 211 256 vvcurveto
          313 131.02000427246094 207 204.97999572753906 78 vhcurveto
          endchar
        </CharString>
        <CharString name="comma">
          -700 -498.97999572753906 43 hstem
          306.99000549316406 158 vstem
          89 callgsubr
          -409 rmoveto
          1 10 callgsubr
          56 -69 rlineto
          127 56 117 172 226 vvcurveto
          71 callsubr
          -40.02000427246094 109 callsubr
          -68.02000427246094 -39.02000427246094 vhcurveto
          endchar
        </CharString>
        <CharString name="copyright">
          832 94.99000549316406 99 287 80 callgsubr
          730.0099945068359 80 callgsubr
          282.99998474121094 211 callsubr
          314.00001525878906 186 callgsubr
          1044.009994506836 -55 callgsubr
          49 1257 rmoveto
          -316 -171.99000549316406 -210 -280 -256 169 -223.99000549316406 274.97999572753906 132.02000427246094 184 callsubr
          41 -70 callgsubr
          61 hvcurveto
          -35 -4 callgsubr
          rlineto
          -30 -52 -88 -36 -111 hhcurveto
          -193 -123 149 221.99000549316406 211 263 callgsubr
          148 -73 callsubr
          66 callgsubr
          71 -32.02000427246094 -36 51 hvcurveto
          175 callsubr
          124 rlineto
          25 -36 -75.99000549316406 39 -130 hhcurveto
          endchar
        </CharString>
        <CharString name="currency">
          229 309.97999572753906 125 632 125 hstem
          321.97999572753906 135 613.010009765625 3 callsubr
          vstem
          1205.990005493164 750.9799957275391 rmoveto
          220 callsubr
          -34 92 -57 74 vhcurveto
          203 203 -97 -4 callgsubr
          -205 -204 rlineto
          49 58 callsubr
          -87 29 -94 hhcurveto
          -92 -86 -28.020004272460938 -47.99000549316406 -71 hvcurveto
          -203 204.99000549316406 -95 -98 200 -199.99000549316406 rlineto
          -59 -74.02000427246094 -35 241 callgsubr
          140 callsubr
          vvcurveto
          -104 35 -94 60 -75 vhcurveto
          -201 -200.99000549316406 224 callgsubr
          -97 203 204.99000549316406 rlineto
          -47 71 118 callgsubr
          -28 91 hhcurveto
          94 88 29 50.02000427246094 71 hvcurveto
          202 -203 -4 callgsubr
          -38 callsubr
          -199 200 rlineto
          57 74 34 93 -71 callsubr
          vvcurveto
          -442 -315.97999572753906 rmoveto
          -169 -137.99000549316406 -31 callgsubr
          173 174.02000427246094 137.99000549316406 221 callsubr
          169 170 136 -23 callsubr
          -174.02000427246094 -173 -136 -142.99000549316406 -170 hvcurveto
          endchar
        </CharString>
        <CharString name="d">
          -62 95 callgsubr
          vstem
          891.9900054931641 1664 rmoveto
          -478 vlineto
          -95 callgsubr
          1676 -166.99000549316406 hlineto
          -618.9900054931641 -1108.009994506836 -93 callsubr
        </CharString>
        <CharString name="dagger">
          -275 1147.979995727539 122.50999450683594 hstemhm
          436.49000549316406 152.99000549316406 -147.50001525878906 141.49000549316406 hintmask 10100000
          437.99000549316406 1148.990005493164 rmoveto
          8 -949 rlineto
          133 hlineto
          177 callgsubr
          949 312.00999450683594 -2 rlineto
          125.00999450683594 vlineto
          hintmask 11000000
          -312.00999450683594 -3 3 389.02000427246094 rlineto
          -156 hlineto
          2.9900054931640625 -389.02000427246094 -310.99000549316406 3 -1 -125.00999450683594 rlineto
          hintmask 10100000
          312 2 rlineto
          endchar
        </CharString>
        <CharString name="daggerdbl">
          -275 498.5 122.49000549316406 526.989990234375 122.50999450683594 hstemhm
          436.97999572753906 150.00999450683594 -144.00999450683594 138 hintmask 11010000
          436.97999572753906 500 rmoveto
          12 -856 rlineto
          126.02000427246094 hlineto
          12 856 312 -3 rlineto
          125.00999450683594 vlineto
          hintmask 11100000
          -312 -2 rlineto
          529 vlineto
          313 -2 rlineto
          125.00999450683594 vlineto
          -313 -3 4 389.02000427246094 rlineto
          -157 hlineto
          2.9900054931640625 -389.02000427246094 -309.97999572753906 3 -1 -125.00999450683594 310.99000549316406 2 rlineto
          -529 vlineto
          -310.99000549316406 2 rlineto
          -125.00999450683594 vlineto
          hintmask 11010000
          310.99000549316406 3 rlineto
          endchar
        </CharString>
        <CharString name="dcaron">
          278 95 callgsubr
          294.02000427246094 218 callsubr
          1442.979995727539 1684.990005493164 rmoveto
          -133 -41 -10 131 callgsubr
          -21.020004272460938 -63 vhcurveto
          7 -23 142 callgsubr
          244 callsubr
          56 156 176 vvcurveto
          103 -18 97 -42 38 vhcurveto
          -550.9900054931641 -499 rmoveto
          -95 callgsubr
          1676 -166.99000549316406 -478 hlineto
          -618.9900054931641 -630 -93 callsubr
        </CharString>
        <CharString name="dcroat">
          192 callsubr
          169 71 callsubr
          hstem
          114 callgsubr
          vstem
          1213.990005493164 1432.990005493164 rmoveto
          -155.02000427246094 231.02000427246094 -166.99000549316406 -231.02000427246094 -293.99000549316406 -108 293.99000549316406 -139 hlineto
          -95 callgsubr
          1336.990005493164 155.02000427246094 108 hlineto
          -941 -877 -93 callsubr
        </CharString>
        <CharString name="degree">
          -392 946.9900054931641 186 callsubr
          455.00999450683594 104 hstem
          121 111 444.97999572753906 110 vstem
          453.97999572753906 1608.990005493164 rmoveto
          -187.99000549316406 -145 -140 -191 -188 59 callgsubr
          -142.99000549316406 184 189 143.99000549316406 139 192 188.99000549316406 -146.97999572753906 142 -186.02000427246094 hvcurveto
          -559 vmoveto
          -122.99000549316406 -99 99 129 -61 callsubr
          97 -4 callgsubr
          -40 callsubr
          124 99 -98 -129 -132 -97 165 callgsubr
          -126.00999450683594 hvcurveto
          endchar
        </CharString>
        <CharString name="dieresis">
          -519 1408 124 callsubr
          hstem
          56.99000549316406 216.99000549316406 234.99998474121094 216 vstem
          57 1513.979995727539 rmoveto
          76 callsubr
          56 170 callgsubr
          -29 43 -70 -58.99000549316406 -59 -49 -70 vhcurveto
          451.99000549316406 hmoveto
          135 callgsubr
          55 62 55 46 74 62 -30 43 -69 -59 -58 -49 -70 vhcurveto
          endchar
        </CharString>
        <CharString name="dieresis.cap">
          -496 1689.979995727539 177 callsubr
          hstem
          59 callsubr
          133 callgsubr
          vstem
          59 callsubr
          19 callsubr
          120 callgsubr
          159 callsubr
          endchar
        </CharString>
        <CharString name="divide">
          92 260.99000549316406 151 callsubr
          208.02000427246094 129.99000549316406 219.00999450683594 222 callsubr
          hstem
          586.9900054931641 177 callsubr
          vstem
          587 1169.979995727539 rmoveto
          -82 callsubr
          47.99000549316406 -40 59 65 60 -70 callgsubr
          79.02000427246094 1 callgsubr
          -35 47 223 callsubr
          -63 -77 callgsubr
          -53 -76 vhcurveto
          -355 -331 rmoveto
          -129.99000549316406 929 129.99000549316406 -929 vlineto
          354 -466 rmoveto
          -26 callsubr
          -40 58 66 59 -70 callgsubr
          79.00999450683594 264 callgsubr
          -35 47 223 callsubr
          -63 -77 callgsubr
          -52.97999572753906 -75.02000427246094 vhcurveto
          endchar
        </CharString>
        <CharString name="dollar">
          81 -235 353.99000549316406 -132.99000549316406 -53 callsubr
          1285.989990234375 129 -129 65 callsubr
          -131.99000549316406 346.99000549316406 hstemhm
          -17 callgsubr
          161.99000549316406 205.989990234375 124.50999450683594 -79.489990234375 124.5 224.5 -24 callgsubr
          hintmask 0101011010000000
          1169.979995727539 384.97999572753906 rmoveto
          57 callsubr
          vhcurveto
          -216 104.02000427246094 -121 70.99000549316406 171 vvcurveto
          152 -1 4 callsubr
          69 162 hhcurveto
          157 94.99000549316406 -34 -48 64 callgsubr
          hvcurveto
          35 133 rlineto
          hintmask 0101010110000000
          -50.02000427246094 33.02000427246094 -100 41.99000549316406 -164.99000549316406 6 rrcurveto
          hintmask 0100110110000000
          2.9900054931640625 215 rlineto
          150 callgsubr
          hlineto
          hintmask 0110010110000000
          206 callsubr
          -217.99000549316406 rlineto
          -206.99000549316406 -20.009994506835938 -204 -104 -248 vvcurveto
          -225 200 -140.99000549316406 198 -90.00999450683594 vhcurveto
          212.99000549316406 200 callgsubr
          -143.99000549316406 -33 callsubr
          rlineto
          hintmask 0101011010000000
          59 callsubr
          -33 148 208 callsubr
          174.97999572753906 -8 rrcurveto
          hintmask 1001011010000000
          -67 callgsubr
          -221 rlineto
          124 hlineto
          hintmask 0101011010000000
          2.9900054931640625 221 rlineto
          258.00999450683594 19 175.99000549316406 132 207 callsubr
          vvcurveto
          endchar
        </CharString>
        <CharString name="dong">
          28 0 150.99000549316406 139.989990234375 138 681.010009765625 137.99000549316406 144.99998474121094 128 hstem
          97 callsubr
          -28 callgsubr
          521.9999847412109 165 vstem
          512 1392.990005493164 rmoveto
          344.99000549316406 -37 hlineto
          3 -127 rlineto
          9.020004272460938 -43 -69 9.990005493164062 187 callsubr
          hhcurveto
          -319 -187.99000549316406 -189 -322.99000549316406 -303 262 callsubr
          -142 221 180 87 69.02000427246094 41 44 hvcurveto
          -70 vlineto
          -8 0.9900054931640625 -32.02000427246094 20.009994506835938 vhcurveto
          117 1102.009994506836 266 128 -266 173 -165 -173 -344.99000549316406 -128 hlineto
          344.99000549316406 -868 rmoveto
          10 callgsubr
          -24 -45 callsubr
          -75 -212 hhcurveto
          -115 -133 85 226 210 74 160 252 189 callsubr
          44 -77 callsubr
          -15 15 hvcurveto
          -544.0099945068359 vlineto
          -744 -524.9799957275391 rmoveto
          1105 151 -1105 -151 hlineto
          endchar
        </CharString>
        <CharString name="dotaccent">
          -971 208 callgsubr
          -17 callgsubr
          hstem
          59 callsubr
          58 callgsubr
          vstem
          59 callsubr
          1501.979995727539 -99 callgsubr
          endchar
        </CharString>
        <CharString name="dotaccent.cap">
          -971 1690.990005493164 -62 callsubr
          50.99000549316406 227 hintmask 01100000
          51 1800.990005493164 rmoveto
          -70 47.97999572753906 -40 139 callgsubr
          23 callsubr
          hintmask 10100000
          53 callsubr
          hintmask 01100000
          46 callgsubr
          hvcurveto
          endchar
        </CharString>
        <CharString name="dotlessi">
          -47 callgsubr
          hstem
          63 callgsubr
          vstem
          210.97999572753906 1139 -89 callsubr
        </CharString>
        <CharString name="e">
          -69 callsubr
          101 callsubr
          1014.9900054931641 139 callsubr
          -107 callsubr
        </CharString>
        <CharString name="eacute">
          48 callgsubr
          938.9900054931641 172 callgsubr
          71 callgsubr
          40 callsubr
          76 -1125 -107 callsubr
        </CharString>
        <CharString name="ebreve">
          -69 callsubr
          179 130 hstemhm
          104 89 callgsubr
          -2.989990234375 118 443.989990234375 114.00999450683594 -74.01998901367188 157.02000427246094 hintmask 00000000
          hintmask 11110110
          602.9900054931641 180 callsubr
          125 callgsubr
          76 callgsubr
          -196.02000427246094 -23.979995727539062 -12 callgsubr
          52 -1 vhcurveto
          -118 hlineto
          102 callsubr
          hintmask 11111001
          412 -782 -107 callsubr
        </CharString>
        <CharString name="ecaron">
          -69 callsubr
          166 -11 callgsubr
          69 callgsubr
          hintmask 11110111
          680 197 callsubr
          hintmask 11111011
          291 -22 callsubr
          hintmask 11110111
          54 callsubr
          227 callsubr
          202 callsubr
          -36 callgsubr
          149.02000427246094 hlineto
          334.99000549316406 -769 -107 callsubr
        </CharString>
        <CharString name="ecircumflex">
          -69 callsubr
          409.010009765625 127 101 callsubr
          604 1565 rmoveto
          262.97999572753906 -16 callsubr
          80 callsubr
          -63 callgsubr
          274 263 rlineto
          410.99000549316406 -1012.0200042724609 -107 callsubr
        </CharString>
        <CharString name="edieresis">
          -69 callsubr
          252.02000427246094 124 callsubr
          hstemhm
          104 89 callgsubr
          2 217 235 216 -71.00999450683594 157.02000427246094 hintmask 00000000
          hintmask 11110110
          369.99000549316406 1408 rmoveto
          184 callgsubr
          74 62 -29 43 -70 -59 -59 102 callgsubr
          56 hvcurveto
          450.99000549316406 hmoveto
          62.02000427246094 -25 callsubr
          46 74 62 -30 43 -69 -59 -58 102 callgsubr
          -25 callsubr
          hvcurveto
          hintmask 11101001
          194 -855.0200042724609 -107 callsubr
        </CharString>
        <CharString name="edotaccent">
          -69 callsubr
          255 callgsubr
          104 89 callgsubr
          220.010009765625 58 callgsubr
          148.989990234375 157.02000427246094 vstem
          594.9799957275391 208 callgsubr
          rmoveto
          111 callgsubr
          -10 callgsubr
          58 hvcurveto
          420 -835.0099945068359 -107 callsubr
        </CharString>
        <CharString name="egrave">
          48 callgsubr
          623.9799957275391 172 callsubr
          241 callsubr
          88 callsubr
          -117 133 -119 134 -100.99000549316406 -61 callsubr
          rlinecurve
          13 callgsubr
          -103 80 -115 197.02000427246094 -185 94.99000549316406 127 callsubr
          rlinecurve
          391 -762 -107 callsubr
        </CharString>
        <CharString name="eight">
          -4 -99 callsubr
          140 callgsubr
          1345.990005493164 117 hstemhm
          97 callsubr
          219 callsubr
          -100.99000549316406 154 577.989990234375 153 -103.989990234375 165 hintmask 11010100
          1163 390.97999572753906 rmoveto
          -1 195 -174 -50 callgsubr
          -184.02000427246094 224 callgsubr
          rrcurveto
          hintmask 11011000
          204 19 callgsubr
          94 176 1 callsubr
          vvcurveto
          211 -180 137 -251 -242 -212 13 callgsubr
          -248 -194 123 -111 148 -88 vhcurveto
          hintmask 11100100
          -227 -99.97999572753906 -104 -160.02000427246094 -159 vvcurveto
          -289 263.99000549316406 -111.97999572753906 246 vhcurveto
          hintmask 11010100
          260 238 240 callgsubr
          278 -67 callgsubr
          hvcurveto
          -792 816 rmoveto
          153 129 88 -24 callgsubr
          vhcurveto
          hintmask 11011000
          180 66 callgsubr
          -105 -148 206 callsubr
          157 callgsubr
          -155 -111 -138 -148 -51 rrcurveto
          hintmask 11010100
          -168 91.02000427246094 90 callgsubr
          97 168 vvcurveto
          303 -1105 rmoveto
          hintmask 11100100
          -232 -124 112 108 callsubr
          157 126 127 159 60 hvcurveto
          197 -100 198 -85 -186 vvcurveto
          hintmask 11010100
          -169 -149 -100 -175 vhcurveto
          endchar
        </CharString>
        <CharString name="ellipsis">
          682 -99 callsubr
          259.99000549316406 hstem
          213.99000549316406 233 427.989990234375 177 callsubr
          429.0299987792969 262 callgsubr
          vstem
          214 117 callgsubr
          rmoveto
          243 callsubr
          58 hhcurveto
          1 callgsubr
          59 59.97999572753906 116 callgsubr
          -67 callgsubr
          hvcurveto
          64 -2 228 callsubr
          -59 127 callsubr
          -75 1 hvcurveto
          660.9900054931641 hmoveto
          -71 2 50 -50.970001220703125 58 hhcurveto
          66 59 59.97999572753906 116 callgsubr
          -3.0200042724609375 hvcurveto
          64 -1 -36.99000549316406 57.02000427246094 223 callsubr
          hhcurveto
          -63 -60 127 callsubr
          -75 2 hvcurveto
          661.0200042724609 hmoveto
          243 callsubr
          58.99000549316406 hhcurveto
          65 58 59.97999572753906 116 callgsubr
          -1 hvcurveto
          64 -67 callgsubr
          228 callsubr
          -60 127 callsubr
          -75 2 hvcurveto
          endchar
        </CharString>
        <CharString name="emacron">
          -69 callsubr
          296.010009765625 124 hstemhm
          104 89 callgsubr
          65 543 176 callgsubr
          157.02000427246094 hintmask 00000000
          hintmask 11111100
          875.9900054931641 1576 rmoveto
          -543.0099945068359 -124 543.0099945068359 124 hlineto
          hintmask 11111010
          139 -1023.0200042724609 -107 callsubr
        </CharString>
        <CharString name="emdash">
          1042 704.9799957275391 135 hstem
          151 callsubr
          1863 vstem
          151 callsubr
          839.9900054931641 rmoveto
          -135 1863 135 -1863 vlineto
          endchar
        </CharString>
        <CharString name="endash">
          391 704.9799957275391 135 hstem
          151 callsubr
          1212 vstem
          151 callsubr
          839.9900054931641 rmoveto
          -135 1212.009994506836 135 -1212.009994506836 vlineto
          endchar
        </CharString>
        <CharString name="eng">
          -7 -507 118 -103.97999572753906 43 449.97999572753906 154 callsubr
          -40 callgsubr
          581.0200042724609 -24 callgsubr
          hintmask 00000000
          hintmask 10101110
          192.97999572753906 1139 rmoveto
          -1139 168 vlineto
          hintmask 10110110
          240 callsubr
          vlineto
          87.02000427246094 88 callsubr
          59 callgsubr
          -23 callgsubr
          109 3 rrcurveto
          174 6 62.02000427246094 58 callsubr
          -246.99000549316406 vvcurveto
          -740 vlineto
          -257.99000549316406 -50 -94 -135 -1 vhcurveto
          -29 -58.99000549316406 5 7 -19 hvcurveto
          hintmask 01110110
          -116 vlineto
          hintmask 10110110
          -7 16 87 -7 38 hhcurveto
          214 103 184 308.97999572753906 hvcurveto
          722 vlineto
          336 127 callgsubr
          118 -245 -5 vhcurveto
          -170 -5 -178 -98.02000427246094 205 callsubr
          157 callsubr
          hintmask 10101110
          146 10 callsubr
          vlineto
          endchar
        </CharString>
        <CharString name="eogonek">
          -173 171 callgsubr
          125.99000549316406 442.97999572753906 112 372 119 hstem
          104 89 callgsubr
          260.010009765625 164.99000549316406 173.989990234375 157.02000427246094 vstem
          1014.9900054931641 139 callsubr
          rmoveto
          9.020004272460938 47 0 55 72.99000549316406 vvcurveto
          -7 260.02000427246094 -161.02000427246094 -79 callgsubr
          -240.99000549316406 -85 callgsubr
          rrcurveto
          -328 -3.9900054931640625 -182.99000549316406 -244.02000427246094 -343 vvcurveto
          -365 -12 callgsubr
          -215.97999572753906 320 46 48 3.9900054931640625 -24 callsubr
          47 vhcurveto
          -108 -71 143 callgsubr
          -130 2 12 callgsubr
          rrcurveto
          -136 1 110 -64 133 hhcurveto
          85 -4 callgsubr
          21 41 53.99000549316406 hvcurveto
          152 callgsubr
          vlineto
          -52.99000549316406 -77 callsubr
          -58 -14 -51.02000427246094 -62 callgsubr
          rrcurveto
          205 callsubr
          -68.00999450683594 175 callsubr
          93 -1 157 callgsubr
          123 158.99000549316406 157 113.00999450683594 69.97999572753906 -2 1 rcurveline
          -24 callsubr
          6 177 callgsubr
          6 7 6 -50 callsubr
          80 callsubr
          rcurveline
          -39.02000427246094 -60 -147 -36.99000549316406 -103 hhcurveto
          -211 -154.99000549316406 110 292.97999572753906 -10.020004272460938 hvcurveto
          40 747 vlineto
          -409.99000549316406 484 rmoveto
          207 -23 callgsubr
          -163 -209 -12 hvcurveto
          -593 hlineto
          263 30 132.02000427246094 109 169 hhcurveto
          endchar
        </CharString>
        <CharString name="equal">
          153 callsubr
          222 callsubr
          1113.990005493164 rmoveto
          -128 915 128 -915 vlineto
          -559 vmoveto
          -127 915 127 -915 vlineto
          endchar
        </CharString>
        <CharString name="estimated">
          82 -99 callsubr
          97.97000122070312 545.010009765625 110 519.989990234375 99 hstem
          108.99000549316406 222 callsubr
          701.0099945068359 223 vstem
          1262.979995727539 627 rmoveto
          11.020004272460938 51 0 92 callgsubr
          86.02000427246094 vvcurveto
          -11.020004272460938 328.99000549316406 -237 200 -290 -5.0200042724609375 rrcurveto
          -416.99000549316406 -6.9900054931640625 -210 -286 -392 vvcurveto
          -430 228.99000549316406 -256.97999572753906 394.02000427246094 59 callgsubr
          197 42.97999572753906 220 callgsubr
          207 callgsubr
          vhcurveto
          -37 94 171 callsubr
          -70 -159 188 callsubr
          -147.99000549316406 hhcurveto
          -171 -141 53 238 callsubr
          -87 hvcurveto
          368 913 vlineto
          -536.9900054931641 629.9900054931641 rmoveto
          163 100.99000549316406 -56 -80 61 hvcurveto
          -384 -701.0099945068359 334.99000549316406 vlineto
          126.02000427246094 241 callsubr
          3 callsubr
          58.99000549316406 155.02000427246094 hhcurveto
          endchar
        </CharString>
        <CharString name="eth">
          -94 203 callsubr
          114.97000122070312 942 125 350.0500030517578 -103 callgsubr
          263 callsubr
          43 hstem
          108.99000549316406 -24 callgsubr
          673.9999847412109 167 vstem
          662 1566.990005493164 rmoveto
          -3.0200042724609375 2 -85 callgsubr
          -66 callsubr
          -3 3.0200042724609375 rrcurveto
          119 callsubr
          58 116 callgsubr
          92 0 vvcurveto
          127 callgsubr
          69 rlineto
          0 -82 -99.99000549316406 -53 -59 vhcurveto
          257 callgsubr
          47.99000549316406 -99.97999572753906 47 -98 30 -40.02000427246094 -97 rcurveline
          72 -23 89.00999450683594 -44 76 108 callgsubr
          -141 -153 rcurveline
          89 -70 221 callsubr
          160 140 -109.02000427246094 114.00999450683594 174 callgsubr
          58 -178 rlinecurve
          11 callsubr
          70 -93 42 -104 1 rrcurveto
          -298 1 -213 -221 -378 vvcurveto
          -362 199.99000549316406 -227 307.02000427246094 258 callgsubr
          vhcurveto
          293.99000549316406 4 206 204.97999572753906 430 vvcurveto
          404.00999450683594 -165 336 -288.99000549316406 215 vhcurveto
          286.97999572753906 -993 rmoveto
          -332 -156 -154 -170.99000549316406 -202.02000427246094 -145 171 304 281.97999572753906 129 185 222 150 callsubr
          114.00999450683594 -81.99000549316406 202 callsubr
          28 vhcurveto
          11 -98 -2 -98 -81 vvcurveto
          endchar
        </CharString>
        <CharString name="exclam">
          -700 106 callgsubr
          -43 103 callgsubr
          -195.5 167.49000549316406 hintmask 10010000
          210.97999572753906 1780 rmoveto
          21.020004272460938 -1307.009994506836 rlineto
          186 callgsubr
          hlineto
          18 1307.009994506836 rlineto
          -187 hlineto
          hintmask 10100000
          203 callsubr
          -1672 rmoveto
          -74 2 145 callgsubr
          hintmask 01100000
          68 -2 -36.99000549316406 119 callsubr
          223 callsubr
          hhcurveto
          hintmask 10100000
          -63 -60 83 callgsubr
          2 hvcurveto
          endchar
        </CharString>
        <CharString name="exclamdbl">
          37 -99 callsubr
          60 callgsubr
          hstemhm
          213.99000549316406 233 -195.52000427246094 167.50999450683594 466 233 -195.5 167.50999450683594 hintmask 10101000
          222 callsubr
          1780 rmoveto
          178 callsubr
          671 hmoveto
          178 callsubr
          hintmask 11010000
          -698 -1672 rmoveto
          -74 -66 callsubr
          145 callgsubr
          68 -2 -37 119 callsubr
          -72.99000549316406 hhcurveto
          -63 -60 83 callgsubr
          2 hvcurveto
          670.9900054931641 hmoveto
          -74 2 50 128 callgsubr
          59 hhcurveto
          242 callgsubr
          58 58.97999572753906 82 -2 hvcurveto
          68 -67 callgsubr
          -37 119 callsubr
          -72.99000549316406 hhcurveto
          127 callsubr
          91 callgsubr
          83 callgsubr
          -66 callsubr
          hvcurveto
          endchar
        </CharString>
        <CharString name="exclamdown">
          -700 1094.979995727539 265.00999450683594 hstemhm
          108 callsubr
          233 -205 167.49000549316406 hintmask 00000000
          hintmask 11000000
          416.99000549316406 1235.990005493164 rmoveto
          74 -2 -50 50 -59 hhcurveto
          -66.00999450683594 -58 -59 -82 2 hvcurveto
          -68 2 36.99000549316406 204 callsubr
          73.00999450683594 hhcurveto
          63 59.99000549316406 62.02000427246094 116 callgsubr
          -67 callgsubr
          hvcurveto
          hintmask 10100000
          -27.009994506835938 -1671.979995727539 rmoveto
          -21 1306.990005493164 rlineto
          -147.99000549316406 hlineto
          -18 -1306.990005493164 rlineto
          186.99000549316406 hlineto
          endchar
        </CharString>
        <CharString name="f">
          -500 -29 callsubr
          407.99000549316406 134 hstem
          155 callsubr
          vstem
          176 callsubr
          1013.9900054931641 rmoveto
          -97 callsubr
          endchar
        </CharString>
        <CharString name="f_f">
          301 -29 callsubr
          407.99000549316406 134 hstem
          155 callsubr
          633.9999847412109 219 callgsubr
          176 callsubr
          1013.9900054931641 rmoveto
          -97 callsubr
          801 hmoveto
          -100 callsubr
          204 callgsubr
          244 callgsubr
          35.99000549316406 39 callgsubr
          endchar
        </CharString>
        <CharString name="f_f_i">
          889 -68 callgsubr
          633.9999847412109 -82 callgsubr
          hintmask 11010111
          860 -103 callsubr
          800.9900054931641 hmoveto
          -100 callsubr
          120.00999450683594 78.99000549316406 128 callsubr
          -77 callgsubr
          hhcurveto
          -182 -210 -111.99000549316406 -338 hvcurveto
          -92 vlineto
          -195.99000549316406 0 callsubr
          195.99000549316406 vlineto
          hintmask 11101011
          -1483 488 -99 callgsubr
          hintmask 11010111
          89 callsubr
          -362.99000549316406 -89 callsubr
        </CharString>
        <CharString name="f_f_i_trk">
          889 -56 callsubr
          155 callsubr
          633.9999847412109 -82 callgsubr
          545.0200042724609 58 callgsubr
          -201.99000549316406 -24 callgsubr
          hintmask 11011101
          176 callsubr
          1013.9900054931641 rmoveto
          -97 callsubr
          801 hmoveto
          -100 callsubr
          204 callgsubr
          244 callgsubr
          35.99000549316406 39 callgsubr
          hintmask 11101110
          712.0099945068359 488 49 callsubr
          hintmask 11011101
          28 147 callgsubr
        </CharString>
        <CharString name="f_f_l">
          895 -29 callsubr
          407.99000549316406 134 135 callsubr
          485.00999450683594 -82 callgsubr
          634.0099945068359 219 callgsubr
          866 -103 callsubr
          801 hmoveto
          -1013.9900054931641 -82 callgsubr
          1013.9900054931641 303 126.00999450683594 -303 128 vlineto
          185 82 94.99000549316406 120.00999450683594 79 43.99000549316406 -6.9900054931640625 -13 36 39 callgsubr
          -1453 650.0200042724609 -27 callsubr
          endchar
        </CharString>
        <CharString name="f_i_trk">
          88 -56 callsubr
          271.99000549316406 266 callgsubr
          230 -196.989990234375 -24 callgsubr
          hintmask 11011010
          176 callsubr
          1013.9900054931641 rmoveto
          -97 callsubr
          hintmask 11101100
          706.9900054931641 488 rmoveto
          -82 callsubr
          49 -42 58 13 callsubr
          vhcurveto
          hintmask 11011010
          33.02000427246094 147 callgsubr
        </CharString>
        <CharString name="ffi_dflt">
          889 -68 callgsubr
          633.9999847412109 -82 callgsubr
          hintmask 11010111
          860 -103 callsubr
          800.9900054931641 hmoveto
          -100 callsubr
          120.00999450683594 78.99000549316406 128 callsubr
          -77 callgsubr
          hhcurveto
          -182 -210 -111.99000549316406 -338 hvcurveto
          -92 vlineto
          -195.99000549316406 0 callsubr
          195.99000549316406 vlineto
          hintmask 11101011
          -1483 488 -99 callgsubr
          hintmask 11010111
          89 callsubr
          -362.99000549316406 -89 callsubr
        </CharString>
        <CharString name="fi">
          88 -68 callgsubr
          hintmask 11010110
          860 -103 callsubr
          hintmask 11101010
          -682 488 -99 callgsubr
          hintmask 11010110
          89 callsubr
          -362.99000549316406 -89 callsubr
        </CharString>
        <CharString name="fi_trk">
          88 -68 callgsubr
          hintmask 11010110
          860 -103 callsubr
          hintmask 11101010
          -682 488 -99 callgsubr
          hintmask 11010110
          89 callsubr
          -362.99000549316406 -89 callsubr
        </CharString>
        <CharString name="five">
          -79 -347.99000549316406 121 778.9800109863281 -40 callsubr
          430.99998474121094 143.99000549316406 hstem
          901.9799957275391 169 vstem
          203 -334.99000549316406 rmoveto
          -11.020004272460938 35 56 -67 callgsubr
          89 callsubr
          hhcurveto
          473 4 271 298 283.99000549316406 vvcurveto
          270.99000549316406 -157.99000549316406 168 -282.00999450683594 -89 -88.99000549316406 -16 -30 -99 vhcurveto
          -70 callgsubr
          477 rlineto
          603.0200042724609 hlineto
          16 144 rlineto
          -750 hlineto
          -61 -735.9900054931641 41 -25 108.00999450683594 40 -50 callgsubr
          22 91.02000427246094 -62 callgsubr
          rlinecurve
          226 140 callgsubr
          -107.00999450683594 -218 -252.97999572753906 -265 -202 -352.99000549316406 1 hvcurveto
          120 callgsubr
          -19.990005493164062 2 2.9900054931640625 -27.009994506835938 hvcurveto
          -62 callgsubr
          -112.99000549316406 rlineto
          endchar
        </CharString>
        <CharString name="fl">
          94 -29 callsubr
          407.99000549316406 134 135 callsubr
          485.00999450683594 219 callgsubr
          866 -103 callsubr
          -652 650.0200042724609 -27 callsubr
          endchar
        </CharString>
        <CharString name="florin">
          -182 1012.9799957275391 128 410.010009765625 135 -16.990005493164062 43 hstemhm
          218.99000549316406 828 -593.010009765625 165 hintmask 10110000
          439.99000549316406 1012.9799957275391 rmoveto
          -115 -1368.979995727539 rlineto
          163.99000549316406 hlineto
          113 1368.979995727539 rlineto
          321 hlineto
          177 callgsubr
          128 rlineto
          hintmask 11001000
          -320 hlineto
          14.009994506835938 236 callsubr
          rlineto
          217.99000549316406 24 100.99000549316406 77 128 hhcurveto
          89 53 176 callgsubr
          -10 16 hvcurveto
          hintmask 10110000
          10.020004272460938 137 rlineto
          hintmask 11001000
          6 -14 -44 11 -89 hhcurveto
          -219 -180.99000549316406 -131.02000427246094 -345.99000549316406 -42 hvcurveto
          -8 -68.02000427246094 -225 -40 -6 -88 rlineto
          hintmask 10110000
          221 hlineto
          endchar
        </CharString>
        <CharString name="four">
          13 0 240 callgsubr
          hstem
          833.4700012207031 159.50999450683594 vstem
          1244 240 callgsubr
          rmoveto
          -251 487.02000427246094 -153 hlineto
          -13 -487.02000427246094 rlineto
          -536.9900054931641 hlineto
          -23 callgsubr
          236 callsubr
          44 86 400 792.9900054931641 51 204 callgsubr
          rlinecurve
          -104 64 rlineto
          -59 hlineto
          -51 -122 -487 -1014 -47 -92 41 -78.99000549316406 rcurveline
          681.9900054931641 -375.99000549316406 166 375.99000549316406 251 240 callgsubr
          hlineto
          endchar
        </CharString>
        <CharString name="four.numr">
          -150 874.9799957275391 116 hstem
          693.4700012207031 155.52000427246094 vstem
          1041.979995727539 874.9900054931641 rmoveto
          -62 callgsubr
          116 rlineto
          -192 298 hlineto
          -149 -16 -6 -280 rlineto
          -2 -397 vlineto
          56 100 384 629 -99 59 rlineto
          -52 hlineto
          -474.00999450683594 -832 41 58 callsubr
          rlineto
          541 hlineto
          -1 -283 rlineto
          156.02000427246094 283 192.99000549316406 hlineto
          endchar
        </CharString>
        <CharString name="fraction">
          -275 0 43 1446.0299987792969 -103 callgsubr
          hstem
          -5 callsubr
          690.9900054931641 vstem
          -5 callsubr
          hmoveto
          150 hlineto
          541 1530 rlineto
          -152 hlineto
          -539 -1530 rlineto
          endchar
        </CharString>
        <CharString name="franc">
          -151 0 400.99000549316406 -135 135 297.989990234375 131 561 131 hstemhm
          237.99000549316406 169.97999572753906 hintmask 01111000
          29 265.99000549316406 rmoveto
          209 hlineto
          hintmask 10111000
          -265.99000549316406 169.99000549316406 vlineto
          hintmask 01111000
          265.99000549316406 267 135 -267 297.97999572753906 509.00999450683594 131 -509.00999450683594 560.9900054931641 681 131 -850.9900054931641 -1121 -209 -135 vlineto
          endchar
        </CharString>
        <CharString name="g">
          -85 callsubr
          6 callgsubr
          514.989990234375 213 callsubr
          hintmask 1111001010000000
          1190.990005493164 1136.990005493164 -32 callgsubr
          hintmask 1110101010000000
          -87 callgsubr
          hintmask 1110100110000000
          -67 callsubr
          hintmask 1110110001000000
          -98 callgsubr
          hintmask 1111000110000000
          -97 callgsubr
          hintmask 1111001010000000
          134 vlineto
          hintmask 1110101010000000
          -102 callsubr
          hintmask 1110110001000000
          -92 callgsubr
          hintmask 1110101010000000
          21 callsubr
        </CharString>
        <CharString name="gbreve">
          -85 callsubr
          178.99000549316406 130 6 callgsubr
          -79.010009765625 118 444.010009765625 -22 callgsubr
          -82.00001525878906 213 callsubr
          hintmask 1111010001100000
          605.9799957275391 1334.990005493164 rmoveto
          72 callgsubr
          -118 hlineto
          107 callgsubr
          -11.979995727539062 240 callgsubr
          -181 221 hhcurveto
          585.0099945068359 -198 -32 callgsubr
          hintmask 1110110100010000
          -87 callgsubr
          hintmask 1110110010010000
          -67 callsubr
          hintmask 1110111000001000
          -98 callgsubr
          hintmask 1111010010010000
          -97 callgsubr
          hintmask 1111010001100000
          134 vlineto
          hintmask 1110110100010000
          -102 callsubr
          hintmask 1110111000001000
          -92 callgsubr
          hintmask 1110110100010000
          21 callsubr
        </CharString>
</ttFont>
